<svg width="55" height="48" viewBox="0 0 55 48" fill="none" xmlns="http://www.w3.org/2000/svg">
<path opacity="0.5" d="M11.9209 9H47.8032V15H11.9209V24L-6.10352e-05 12L11.9209 0V9Z" fill="white"/>
<path d="M47.6636 22.5C47.0471 22.5 46.4726 22.6875 45.9956 23.007C45.5846 21.84 44.4701 21 43.1636 21C42.5471 21 41.9726 21.1875 41.4956 21.507C41.0846 20.34 39.9701 19.5 38.6636 19.5C38.1176 19.5 37.6046 19.647 37.1636 19.9035V15C37.1636 13.3455 35.8181 12 34.1636 12C32.5091 12 31.1636 13.3455 31.1636 15V32.5365L27.0401 30.474C26.4191 30.1635 25.7231 30 25.0286 30C23.4476 30 22.1636 31.2855 22.1636 32.874C22.1636 33.6405 22.4621 34.359 23.0036 34.9005L32.7026 44.5995C34.8941 46.7925 37.8116 48 40.9136 48C46.2896 48 50.6636 43.626 50.6636 38.25V25.5C50.6636 23.8455 49.3181 22.5 47.6636 22.5ZM49.1636 38.25C49.1636 42.7995 45.4615 46.5 40.912 46.5C38.2106 46.5 35.6726 45.4484 33.7646 43.5375L24.0641 33.8385C23.8061 33.582 23.6636 33.2385 23.6636 32.865C23.6636 32.112 24.2756 31.5 25.0286 31.5C25.4921 31.5 25.9541 31.6095 26.3696 31.8165L31.5791 34.4205C31.8116 34.5361 32.0891 34.524 32.3081 34.3876C32.5286 34.2511 32.6636 34.0096 32.6636 33.75V15C32.6636 14.1735 33.3356 13.5 34.1636 13.5C34.9916 13.5 35.6636 14.1736 35.6636 15V29.25C35.6636 29.664 35.9996 30.0001 36.4136 30.0001C36.8276 30.0001 37.1636 29.664 37.1636 29.25V22.5C37.1636 21.6735 37.8356 21.0001 38.6636 21.0001C39.4916 21.0001 40.1636 21.6736 40.1636 22.5V29.25C40.1636 29.664 40.4996 30.0001 40.9136 30.0001C41.3276 30.0001 41.6636 29.664 41.6636 29.25V24C41.6636 23.1735 42.3356 22.5 43.1636 22.5C43.9916 22.5 44.6636 23.1736 44.6636 24V29.25C44.6636 29.664 44.9996 30.0001 45.4136 30.0001C45.8276 30.0001 46.1636 29.664 46.1636 29.25V25.5C46.1636 24.6735 46.8356 24 47.6636 24C48.4916 24 49.1636 24.6735 49.1636 25.5V38.25Z" fill="white"/>
<path d="M49.1636 38.25C49.1636 42.7995 45.4615 46.5 40.912 46.5C38.2106 46.5 35.6726 45.4484 33.7646 43.5375L24.0641 33.8385C23.8061 33.582 23.6636 33.2385 23.6636 32.865C23.6636 32.112 24.2756 31.5 25.0286 31.5C25.4921 31.5 25.9541 31.6095 26.3696 31.8165L31.5791 34.4205C31.8116 34.5361 32.0891 34.524 32.3081 34.3876C32.5286 34.2511 32.6636 34.0096 32.6636 33.75V15C32.6636 14.1735 33.3356 13.5 34.1636 13.5C34.9916 13.5 35.6636 14.1736 35.6636 15V29.25C35.6636 29.664 35.9996 30.0001 36.4136 30.0001C36.8276 30.0001 37.1636 29.664 37.1636 29.25V22.5C37.1636 21.6735 37.8356 21.0001 38.6636 21.0001C39.4916 21.0001 40.1636 21.6736 40.1636 22.5V29.25C40.1636 29.664 40.4996 30.0001 40.9136 30.0001C41.3276 30.0001 41.6636 29.664 41.6636 29.25V24C41.6636 23.1735 42.3356 22.5 43.1636 22.5C43.9916 22.5 44.6636 23.1736 44.6636 24V29.25C44.6636 29.664 44.9996 30.0001 45.4136 30.0001C45.8276 30.0001 46.1636 29.664 46.1636 29.25V25.5C46.1636 24.6735 46.8356 24 47.6636 24C48.4916 24 49.1636 24.6735 49.1636 25.5V38.25Z" fill="white"/>
</svg>
