<svg width="140" height="141" viewBox="0 0 140 141" fill="none" xmlns="http://www.w3.org/2000/svg">
<path d="M55.8798 90.1401L55.6921 90.3277L54.9625 91.2451C53.9816 92.3473 52.9374 93.3915 51.8354 94.3725L49.8132 96.2177L39.525 105.225L27.3917 114.961C27.2644 115.052 27.1205 115.116 26.9683 115.151C26.8162 115.186 26.6586 115.19 26.5047 115.164C26.3508 115.138 26.2035 115.082 26.0713 114.999C25.9391 114.916 25.8245 114.807 25.7342 114.68C25.5037 114.457 25.3595 114.161 25.327 113.842C25.2946 113.523 25.3761 113.203 25.5571 112.939L29.2263 108.342L42.0892 93.0903L46.1336 88.493C47.3636 87.2698 48.3434 86.2899 49.0731 85.5533L50.3656 84.4482C51.1885 83.8489 52.1957 83.5575 53.2114 83.6247C53.7075 83.6459 54.1935 83.7721 54.6373 83.9949C55.0811 84.2177 55.4726 84.5321 55.786 84.9173C56.4338 85.6169 56.8044 86.5287 56.8284 87.4818C56.8009 88.4459 56.4688 89.3764 55.8798 90.1401V90.1401Z" fill="#A4A9B7"/>
<path d="M36.6804 102.268L48.8138 87.6328L50.9323 88.7882L36.6804 102.268Z" fill="#E8E9ED"/>
<path d="M114.68 58.6262C114.69 59.1216 114.596 59.6136 114.406 60.0711C114.216 60.5286 113.933 60.9418 113.575 61.2845L112.293 62.5771C110.383 64.4609 107.809 65.5171 105.127 65.5171C102.444 65.5171 99.8699 64.4609 97.9603 62.5771C97.9177 62.519 97.862 62.4717 97.7977 62.4391C97.7334 62.4065 97.6624 62.3894 97.5903 62.3894C97.5182 62.3894 97.4472 62.4065 97.3829 62.4391C97.3186 62.4717 97.2629 62.519 97.2203 62.5771L81.9703 77.6409C81.5019 78.1292 81.2251 78.77 81.1907 79.4458C81.1562 80.1217 81.3663 80.7872 81.7826 81.3207C83.5802 83.9612 84.3954 87.1483 84.0863 90.3277C83.7742 93.5145 82.3799 96.4983 80.1357 98.7821L74.2567 104.662C72.7177 106.191 70.636 107.05 68.4662 107.05C66.2964 107.05 64.2148 106.191 62.6759 104.662L35.6574 77.8285C34.1278 76.2894 33.2693 74.2076 33.2693 72.0376C33.2693 69.8676 34.1278 67.7857 35.6574 66.2467L41.7241 60.3671C43.9488 58.0251 46.9584 56.5851 50.1778 56.3223C53.363 56.0805 56.5366 56.9218 59.1839 58.7096C59.7146 59.0731 60.3572 59.236 60.9969 59.1691C61.6366 59.1023 62.2318 58.81 62.6759 58.3447L77.905 43.3019C77.9661 43.1881 77.9981 43.061 77.9981 42.9318C77.9981 42.8026 77.9661 42.6755 77.905 42.5617C76.0213 40.6519 74.9653 38.0772 74.9653 35.3947C74.9653 32.7122 76.0213 30.1375 77.905 28.2277L79.01 26.9455C79.7886 26.2368 80.8028 25.8429 81.8556 25.8405C82.3524 25.8321 82.8455 25.9258 83.3046 26.1159C83.7636 26.306 84.1786 26.5884 84.5241 26.9455L113.554 55.9783C113.914 56.3188 114.199 56.7296 114.393 57.1851C114.586 57.6406 114.684 58.1312 114.68 58.6262Z" fill="#FFBC1F"/>
<path d="M69.0357 71.8425C62.7186 65.5264 61.011 61.1231 60.9468 59.7109C52.4728 56.0522 51.8948 57.5927 55.9394 62.2143C60.0548 66.9169 76.932 79.7377 69.0357 71.8425Z" fill="#FFD470"/>
<path d="M71.1295 66.0693C70.8433 66.3651 70.4996 66.599 70.1196 66.7568C69.7395 66.9146 69.3311 66.9928 68.9197 66.9866C68.5096 66.9939 68.1025 66.9161 67.724 66.7582C67.3454 66.6003 67.0037 66.3658 66.7203 66.0693C66.435 65.8014 66.2067 65.4786 66.0491 65.1204C65.8914 64.7621 65.8077 64.3758 65.803 63.9844C65.8242 63.1316 66.1495 62.3144 66.7203 61.6805L78.8431 49.7442C79.265 49.3329 79.7976 49.0534 80.3758 48.9398C80.9539 48.8262 81.5525 48.8835 82.0986 49.1046C82.6448 49.3257 83.1147 49.7012 83.451 50.185C83.7873 50.6688 83.9754 51.2401 83.9924 51.8291C83.9865 52.2203 83.9023 52.6064 83.7448 52.9644C83.5872 53.3225 83.3595 53.6454 83.0751 53.9141L71.1295 66.0485V66.0693Z" fill="#FFD470"/>
<path d="M95.2103 60.5901L93.3436 58.6854C82.7457 48.1638 76.082 46.6005 73.9995 47.2033L78.1721 43.2046L93.3436 58.6854C93.9529 59.2903 94.5752 59.9247 95.2103 60.5901Z" fill="#F5AB00"/>
<ellipse cx="59" cy="115" rx="34" ry="2.5" fill="black" fill-opacity="0.06"/>
</svg>
