<svg width="69" height="48" viewBox="0 0 69 48" fill="none" xmlns="http://www.w3.org/2000/svg">
<path opacity="0.9" d="M67.1402 7.49577C66.35 4.54374 64.0301 2.22389 61.0781 1.43368C55.7272 0 34.2841 0 34.2841 0C34.2841 0 12.841 0 7.49577 1.43368C4.54374 2.22389 2.22389 4.54374 1.43368 7.49577C0 12.841 0 24 0 24C0 24 0 35.159 1.43368 40.5042C2.22389 43.4563 4.54374 45.7761 7.49577 46.5663C12.841 48 34.2841 48 34.2841 48C34.2841 48 55.7272 48 61.0724 46.5663C64.0245 45.7761 66.3443 43.4563 67.1345 40.5042C68.5682 35.159 68.5682 24 68.5682 24C68.5682 24 68.5682 12.841 67.1345 7.49577H67.1402Z" fill="#FF0000"/>
<path d="M27.4261 34.2841L45.2455 24L27.4261 13.7159V34.2841Z" fill="white"/>
</svg>
