<svg width="140" height="140" viewBox="0 0 140 140" fill="none" xmlns="http://www.w3.org/2000/svg">
<ellipse cx="70" cy="114" rx="45" ry="3" fill="black" fill-opacity="0.08"/>
<path d="M107.838 26.4362H32.1884C30.8021 26.4315 29.4284 26.6994 28.1457 27.2245C26.8631 27.7496 25.6967 28.5217 24.713 29.4966C23.7294 30.4716 22.9478 31.6303 22.413 32.9067C21.8781 34.1831 21.6004 35.5521 21.5957 36.9356V84.9135C21.6004 86.297 21.8781 87.666 22.413 88.9424C22.9478 90.2187 23.7294 91.3775 24.713 92.3524C25.6967 93.3274 26.8631 94.0995 28.1457 94.6246C29.4284 95.1497 30.8021 95.4175 32.1884 95.4128H43.3528V113.372L60.0993 95.4128H107.811C109.198 95.4175 110.571 95.1497 111.854 94.6246C113.137 94.0995 114.303 93.3274 115.287 92.3524C116.27 91.3775 117.052 90.2187 117.587 88.9424C118.122 87.666 118.399 86.297 118.404 84.9135V36.9356C118.395 34.1462 117.277 31.4743 115.296 29.5061C113.316 27.5378 110.633 26.4338 107.838 26.4362V26.4362Z" fill="#FFBC1F"/>
<path d="M60.0994 95.4128H107.811C109.198 95.4175 110.571 95.1497 111.854 94.6246C113.137 94.0995 114.303 93.3274 115.287 92.3524C116.27 91.3775 117.052 90.2187 117.587 88.9424C118.122 87.666 118.399 86.297 118.404 84.9135V55.7863C118.404 55.7863 115.073 82.7209 114.474 85.0917C113.876 87.4626 112.688 91.0099 107.061 91.5981C101.434 92.1864 60.0994 95.4128 60.0994 95.4128Z" fill="#CC8F00"/>
<path d="M29.4467 46.5259C30.2154 43.8109 31.5147 41.2743 33.2698 39.0625C35.025 36.8506 37.2012 35.007 39.6733 33.6379C39.8197 33.5641 39.9374 33.4438 40.008 33.296C40.0786 33.1482 40.0981 32.9812 40.0633 32.8212C40.0286 32.6612 39.9417 32.5171 39.8161 32.4117C39.6906 32.3063 39.5336 32.2454 39.3696 32.2386C34.6002 31.9534 24.9721 32.9695 27.9909 46.4546C28.0228 46.6192 28.109 46.7684 28.2359 46.8783C28.3628 46.9881 28.523 47.0523 28.6908 47.0605C28.8586 47.0687 29.0243 47.0205 29.1613 46.9236C29.2984 46.8267 29.3989 46.6866 29.4467 46.5259V46.5259Z" fill="#FFD470"/>
<path d="M86.5646 44.1675L66.313 66.4387L60.4353 61.9836H57.1675L66.313 76.8324L89.8324 44.1675H86.5646Z" fill="#1E325C"/>
</svg>
