<svg width="284" height="191" viewBox="0 0 284 191" fill="none" xmlns="http://www.w3.org/2000/svg">
<ellipse cx="129.562" cy="116.733" rx="72.9374" ry="72.8026" fill="white"/>
<path d="M129.562 190.036C170.12 190.036 203 157.218 203 116.733C203 76.2485 170.12 43.4307 129.562 43.4307C89.0049 43.4307 56.125 76.2485 56.125 116.733C56.125 157.218 89.0049 190.036 129.562 190.036Z" stroke="#3F4350" stroke-opacity="0.16"/>
<ellipse cx="129.562" cy="116.733" rx="72.9374" ry="72.8026" fill="#3F4350" fill-opacity="0.16"/>
<mask id="mask0_418_8631" style="mask-type:alpha" maskUnits="userSpaceOnUse" x="55" y="42" width="149" height="149">
<ellipse cx="129.562" cy="116.733" rx="72.9374" ry="72.8026" fill="white"/>
<path d="M129.562 190.036C170.12 190.036 203 157.218 203 116.733C203 76.2485 170.12 43.4307 129.562 43.4307C89.0049 43.4307 56.125 76.2485 56.125 116.733C56.125 157.218 89.0049 190.036 129.562 190.036Z" stroke="#3F4350" stroke-opacity="0.16"/>
</mask>
<g mask="url(#mask0_418_8631)">
<path d="M89.869 169.039C89.7774 177.652 90.2355 184.799 91.2129 190.714C95.5295 192.455 99.9786 193.941 104.55 195.133C104.652 195.163 104.743 195.184 104.845 195.214C105.313 195.336 105.782 195.458 106.26 195.57C109.202 196.314 112.206 196.935 115.25 197.423C121.287 198.421 127.477 198.93 133.789 198.93C152.878 198.93 170.858 194.247 186.658 185.95C191.616 183.364 196.35 180.421 200.84 177.133C201.787 164.346 204.851 144.799 205.055 130.79C205.89 74.3777 206.633 69.0225 166.266 67.0271C162.54 66.8438 158.457 66.6809 153.998 66.518C148.358 66.3144 143.206 66.1821 138.503 66.1515C136.029 66.1312 133.677 66.1515 131.448 66.2024C113.448 66.5791 103.186 69.1753 97.3519 76.5462C91.5183 83.9273 90.1337 96.0629 89.8792 115.539C89.757 124.691 89.8792 135.463 89.9199 148.138C89.9301 151.121 89.9301 154.206 89.9199 157.382C89.9199 161.118 89.9097 164.997 89.869 169.039Z" fill="#1C58D9"/>
<path d="M89.8689 169.039C89.7773 177.652 90.2355 184.799 91.2128 190.714C95.6211 192.496 100.172 194.003 104.845 195.214C104.845 142.457 103.705 123.46 104.132 118.196C102.697 117.687 99.0521 116.832 89.8791 115.539C89.757 124.691 89.8791 135.463 89.9199 148.138C89.93 151.121 89.93 154.206 89.9199 157.382C89.9199 161.118 89.9097 164.997 89.8689 169.039Z" fill="#A37200"/>
<path d="M94.9705 137.279L116.453 138.377C118.745 138.499 120.08 135.839 118.61 134.082L97.3234 108.685C96.7107 107.953 95.8161 107.513 94.8602 107.465L76.7234 106.537C73.7333 106.378 71.9808 109.857 73.9048 112.151L94.9705 137.279Z" fill="#3F4350"/>
<path d="M176.936 133.152C179.919 128.244 197.827 131.726 198.051 131.767C198.773 132.225 204.057 133.498 204.984 133.762C204.801 136.888 204.638 143.119 203.65 149.858C201.899 157.586 199.466 166.3 196.137 176.125C195.495 177.998 194.813 179.76 194.08 181.46C190.395 183.16 186.852 185.664 183.197 186.978C181.466 187.599 173.454 138.873 176.936 133.162V133.152Z" fill="black" fill-opacity="0.5"/>
<path d="M87.544 130.025C88.9082 132.397 91.1378 135.268 94.579 137.772C108.65 147.98 129.718 191.098 150.527 191.098C169.616 191.098 182.949 177.773 198.749 169.476C200.572 166.197 202.201 162.512 203.606 158.389C209.439 141.193 212.534 127.327 214.021 116.372C208.971 115.161 187.55 108.075 183.498 106.069C169.306 174.953 156.702 174.199 133.887 154.825C108.415 133.191 109.84 134.749 97.5416 130.025C96.4828 129.618 95.4952 129.221 94.579 128.844C84.9275 124.853 83.4615 122.898 87.544 130.025Z" fill="#CC8F00"/>
<path d="M171.051 123.49L171.774 121.596L168.353 120.273L170.318 108.85L168.312 108.504L166.073 121.576L171.051 123.49Z" fill="black" fill-opacity="0.5"/>
<path d="M103.114 100.054H105.15V118.196H103.114V100.054Z" fill="black" fill-opacity="0.5"/>
<path d="M130.209 89.2717C130.209 84.8534 133.791 81.2717 138.209 81.2717H226.544C230.962 81.2717 234.544 84.8535 234.544 89.2717V130.382C234.544 134.8 230.962 138.382 226.544 138.382H130.209V89.2717Z" fill="black" fill-opacity="0.32"/>
</g>
<path d="M154.112 57.4644C152.753 55.738 151.296 53.8525 149.851 51.8935C147.354 48.4898 144.893 44.8779 142.983 41.5476C142.064 39.9436 142.187 37.5684 142.615 35.0339C139.873 28.8386 137.424 22.5208 135.453 16.0317C127.923 13.3993 118.348 15.444 115.459 15.7256C111.308 16.1174 107.562 16.1663 106.619 19.3007C105.297 23.7452 108.002 32.475 109.484 41.0946L120.234 53.6811L128.658 69.5735L132.38 74.2873L164.324 70.5407C164.324 70.5407 158.116 62.5088 154.112 57.4522V57.4644Z" fill="#CC8F00"/>
<path d="M108.419 27.761C105.003 36.8214 102.848 43.3473 102.848 43.3473C103.227 46.5429 112.337 45.2451 112.337 45.2451L108.419 27.761Z" fill="#CC8F00"/>
<path d="M132.845 1.2167C138.318 3.10223 143.032 6.95901 146.301 11.7341C150.427 17.7457 152.312 25.2634 151.541 32.5117C151.174 35.9644 150.096 39.5396 147.488 41.8291C144.636 44.3391 140.154 44.7554 136.836 42.8943C133.518 41.0333 131.547 37.0786 131.963 33.2953C132.245 30.6996 133.543 28.2264 133.371 25.6184C133.188 23.0105 130.298 20.3659 128.143 21.8351C126.38 23.035 126.466 26.0959 124.495 26.9163C121.985 27.9692 120.271 24.3818 118.189 22.6187C114.945 19.8761 110.096 21.7249 105.994 22.8514C100.264 24.4308 93.6405 24.1002 88.9879 20.4026C84.3353 16.705 82.7558 9.05268 86.7595 4.65719C89.2817 1.89011 93.3467 0.959582 97.0688 1.36363C103.766 2.086 106.778 5.73463 113.279 2.93082C119.634 0.175984 126.062 -1.12185 132.833 1.20446L132.845 1.2167Z" fill="#4A2407"/>
<path d="M126.356 65.986C134.29 65.8023 143.472 65.9738 154.137 66.3656C159.255 66.5492 163.944 66.7329 168.254 66.941C168.254 84.6332 120.552 99.9623 126.368 65.986H126.356Z" fill="#CC8F00"/>
<path d="M106.491 25.5475C107.565 33.5379 110.549 46.465 115.753 56.4268C116.817 58.4654 119.932 57.4315 122.975 56.4274C133.947 52.8256 106.491 25.5475 106.491 25.5475Z" fill="#CC8F00"/>
<path d="M113.306 50.3579C115.274 50.2463 117.579 49.1159 119.029 47.885C119.773 47.5487 119.317 46.3616 118.562 46.694C116.48 48.3237 114.733 49.066 112.725 49.1159L113.306 50.3579Z" fill="#6F370B"/>
<ellipse rx="1.83656" ry="1.22437" transform="matrix(-0.936576 0.350465 0.350465 0.936576 112.924 31.9767)" fill="#6F370B"/>
<path d="M122.454 56.6349C124.633 55.8758 126.629 54.2964 128.429 52.8638C129.249 52.2149 129.714 53.2801 129.298 54.2229C128.98 54.9575 127.694 55.937 126.139 56.4023C125.148 56.6961 120.972 57.1369 122.442 56.6227L122.454 56.6349Z" fill="#A37200"/>
<path d="M119.226 83.7803C119.226 79.3621 122.808 75.7803 127.226 75.7803H275.966C280.384 75.7803 283.966 79.3621 283.966 83.7803V122.694C283.966 127.112 280.384 130.694 275.966 130.694H119.226V83.7803Z" fill="white"/>
<path d="M119.726 83.7803C119.726 79.6382 123.084 76.2803 127.226 76.2803H275.966C280.108 76.2803 283.466 79.6382 283.466 83.7803V122.694C283.466 126.836 280.108 130.194 275.966 130.194H119.726V83.7803Z" stroke="#3F4350" stroke-opacity="0.16"/>
<ellipse cx="151.076" cy="103.237" rx="18.6705" ry="18.6705" fill="#30916B"/>
<path d="M145.075 101.684C145.875 103.213 146.902 104.607 148.154 105.865C149.441 107.089 150.867 108.092 152.433 108.874L154.885 106.477C155.198 106.171 155.581 106.086 156.033 106.222C157.285 106.63 158.607 106.834 159.998 106.834C160.312 106.834 160.572 106.936 160.781 107.14C160.99 107.344 161.094 107.599 161.094 107.905V111.729C161.094 112.035 160.99 112.29 160.781 112.494C160.572 112.698 160.312 112.8 159.998 112.8C157.494 112.8 155.076 112.341 152.746 111.423C150.415 110.471 148.363 109.128 146.589 107.395C144.814 105.661 143.44 103.655 142.466 101.378C141.527 99.0999 141.058 96.7372 141.058 94.2895C141.058 93.9836 141.162 93.7286 141.371 93.5246C141.579 93.3207 141.84 93.2187 142.153 93.2187H146.067C146.38 93.2187 146.641 93.3207 146.849 93.5246C147.058 93.7286 147.162 93.9836 147.162 94.2895C147.162 95.6494 147.371 96.9412 147.789 98.165C147.928 98.6069 147.841 98.9809 147.528 99.2868L145.075 101.684Z" fill="white"/>
<path d="M181.178 99.2685H186.12V100.861H179.442V91.2431H181.178V99.2685ZM190.438 99.5146C190.775 99.5146 191.121 99.4462 191.477 99.3095C191.832 99.1728 192.11 98.9996 192.311 98.79L193.391 99.9111C193.081 100.239 192.646 100.508 192.085 100.718C191.529 100.927 190.985 101.032 190.451 101.032C189.763 101.032 189.132 100.873 188.558 100.554C187.984 100.23 187.526 99.7766 187.184 99.1933C186.842 98.6054 186.671 97.9492 186.671 97.2245C186.671 96.149 187.024 95.2535 187.731 94.538C188.442 93.818 189.314 93.4579 190.349 93.4579C191.461 93.4579 192.329 93.8499 192.953 94.6337C193.582 95.413 193.897 96.4772 193.897 97.8261H188.435C188.544 98.332 188.777 98.7398 189.132 99.0497C189.492 99.3596 189.927 99.5146 190.438 99.5146ZM190.424 94.9687C189.95 94.9687 189.533 95.11 189.173 95.3925C188.818 95.6705 188.576 96.0465 188.448 96.5204H192.256C192.151 96.0465 191.944 95.6705 191.634 95.3925C191.324 95.11 190.921 94.9687 190.424 94.9687ZM200.381 100.519C199.784 100.861 199.141 101.032 198.453 101.032C197.765 101.032 197.122 100.861 196.525 100.519C195.928 100.173 195.455 99.7083 195.104 99.1249C194.753 98.5416 194.577 97.9127 194.577 97.2382C194.577 96.5637 194.753 95.9371 195.104 95.3583C195.455 94.775 195.928 94.3124 196.525 93.9706C197.122 93.6288 197.765 93.4579 198.453 93.4579C199.141 93.4579 199.784 93.6288 200.381 93.9706C200.978 94.3124 201.452 94.775 201.803 95.3583C202.158 95.9371 202.336 96.5637 202.336 97.2382C202.336 97.9127 202.158 98.5416 201.803 99.1249C201.452 99.7083 200.978 100.173 200.381 100.519ZM198.453 99.5761C199.05 99.5761 199.565 99.346 199.998 98.8857C200.436 98.4208 200.654 97.8717 200.654 97.2382C200.654 96.6093 200.436 96.0647 199.998 95.6044C199.565 95.1441 199.05 94.914 198.453 94.914C197.852 94.914 197.332 95.1441 196.895 95.6044C196.462 96.0647 196.245 96.6093 196.245 97.2382C196.245 97.8762 196.462 98.4254 196.895 98.8857C197.332 99.346 197.852 99.5761 198.453 99.5761ZM207.344 93.4579C208.132 93.4579 208.777 93.72 209.278 94.2441C209.78 94.7636 210.03 95.4335 210.03 96.2538V100.861H208.376V96.5888C208.376 96.1012 208.232 95.7001 207.945 95.3857C207.663 95.0712 207.298 94.914 206.852 94.914C206.405 94.914 206.015 95.0462 205.683 95.3105C205.35 95.5703 205.156 95.8938 205.102 96.2812V100.861H203.393V93.622H205.102V94.5859C205.329 94.2441 205.644 93.9706 206.045 93.7656C206.446 93.5605 206.879 93.4579 207.344 93.4579ZM214.614 93.4579C215.567 93.4579 216.323 93.7359 216.884 94.2919C217.444 94.8479 217.725 95.5862 217.725 96.5068V100.861H216.057V99.9931C215.797 100.321 215.46 100.576 215.045 100.759C214.63 100.941 214.206 101.032 213.773 101.032C212.994 101.032 212.349 100.82 211.839 100.396C211.328 99.9726 211.073 99.4143 211.073 98.7216C211.073 98.0198 211.358 97.4433 211.928 96.9921C212.497 96.5364 213.197 96.3085 214.026 96.3085C214.696 96.3085 215.373 96.4407 216.057 96.705V96.5068C216.057 96.288 216.025 96.0829 215.961 95.8915C215.897 95.7001 215.799 95.5247 215.667 95.3652C215.535 95.2057 215.35 95.0803 215.113 94.9892C214.876 94.8981 214.598 94.8525 214.279 94.8525C213.7 94.8525 213.046 95.0348 212.317 95.3994L211.729 94.2099C212.746 93.7086 213.707 93.4579 214.614 93.4579ZM214.149 99.7812C214.591 99.7812 214.995 99.6764 215.359 99.4667C215.728 99.2525 215.961 98.9609 216.057 98.5917V97.7783C215.519 97.5914 214.926 97.498 214.279 97.498C213.846 97.498 213.482 97.6074 213.185 97.8261C212.889 98.0449 212.741 98.3229 212.741 98.6601C212.741 98.9973 212.873 99.2685 213.138 99.4736C213.402 99.6786 213.739 99.7812 214.149 99.7812ZM220.9 95.0234C221.137 94.5357 221.481 94.1529 221.932 93.8749C222.384 93.5969 222.903 93.4579 223.491 93.4579V94.914C222.716 94.914 222.09 95.1236 221.611 95.5429C221.137 95.9622 220.9 96.5159 220.9 97.204V100.861H219.191V93.622H220.9V95.0234ZM229.839 91.0722H231.548V100.861H229.839V99.7402C229.547 100.155 229.187 100.474 228.759 100.697C228.33 100.921 227.854 101.032 227.33 101.032C226.368 101.032 225.575 100.679 224.951 99.9726C224.327 99.2617 224.014 98.3502 224.014 97.2382C224.014 96.1354 224.327 95.2307 224.951 94.5244C225.575 93.8134 226.368 93.4579 227.33 93.4579C228.396 93.4579 229.233 93.8863 229.839 94.7431V91.0722ZM227.795 99.5761C228.396 99.5761 228.886 99.3574 229.264 98.9199C229.647 98.4824 229.839 97.9218 229.839 97.2382C229.839 96.5592 229.647 96.0032 229.264 95.5703C228.886 95.1328 228.396 94.914 227.795 94.914C227.184 94.914 226.683 95.1328 226.291 95.5703C225.903 96.0032 225.71 96.5592 225.71 97.2382C225.71 97.9173 225.906 98.4778 226.298 98.9199C226.69 99.3574 227.189 99.5761 227.795 99.5761ZM182.142 115.032C181.581 115.032 181.021 114.936 180.46 114.745C179.904 114.554 179.412 114.285 178.984 113.938L179.749 112.749C180.524 113.31 181.331 113.59 182.169 113.59C182.516 113.59 182.796 113.521 183.01 113.385C183.224 113.248 183.331 113.068 183.331 112.845C183.331 112.754 183.315 112.671 183.283 112.599C183.256 112.521 183.206 112.453 183.133 112.393C183.06 112.334 182.99 112.284 182.921 112.243C182.853 112.198 182.75 112.152 182.614 112.106C182.481 112.056 182.367 112.018 182.272 111.99C182.181 111.963 182.048 111.926 181.875 111.881C181.447 111.771 181.089 111.662 180.802 111.553C180.519 111.443 180.257 111.307 180.016 111.143C179.774 110.978 179.597 110.782 179.483 110.555C179.369 110.322 179.309 110.049 179.305 109.734C179.305 109.055 179.558 108.506 180.064 108.087C180.57 107.668 181.226 107.458 182.032 107.458C183.008 107.458 183.933 107.747 184.808 108.326L184.09 109.57C183.397 109.133 182.712 108.914 182.032 108.914C181.723 108.914 181.467 108.973 181.267 109.092C181.066 109.206 180.966 109.361 180.966 109.557C180.966 109.775 181.062 109.942 181.253 110.056C181.449 110.165 181.848 110.306 182.449 110.479C182.659 110.539 182.835 110.591 182.976 110.637C183.117 110.678 183.283 110.737 183.475 110.814C183.671 110.887 183.833 110.963 183.96 111.04C184.092 111.113 184.227 111.209 184.364 111.327C184.505 111.441 184.616 111.564 184.698 111.696C184.781 111.828 184.849 111.986 184.904 112.168C184.958 112.346 184.986 112.539 184.986 112.749C184.986 113.442 184.724 113.995 184.199 114.41C183.68 114.825 182.994 115.032 182.142 115.032ZM189.665 113.31L190.151 114.458C189.945 114.636 189.706 114.775 189.433 114.875C189.159 114.98 188.886 115.032 188.612 115.032C188.011 115.032 187.519 114.836 187.136 114.444C186.758 114.052 186.569 113.551 186.569 112.94V109.037H185.516V107.622H186.569V105.633H188.236V107.622H189.87V109.037H188.236V112.735C188.236 112.981 188.303 113.184 188.435 113.344C188.571 113.499 188.742 113.576 188.947 113.576C189.248 113.576 189.487 113.487 189.665 113.31ZM194.208 107.458C195.161 107.458 195.917 107.736 196.478 108.292C197.038 108.848 197.318 109.586 197.318 110.507V114.861H195.65V113.993C195.391 114.321 195.053 114.576 194.639 114.759C194.224 114.941 193.8 115.032 193.367 115.032C192.588 115.032 191.943 114.82 191.433 114.396C190.922 113.973 190.667 113.414 190.667 112.722C190.667 112.02 190.952 111.443 191.522 110.992C192.091 110.536 192.791 110.309 193.62 110.309C194.29 110.309 194.967 110.441 195.65 110.705V110.507C195.65 110.288 195.619 110.083 195.555 109.892C195.491 109.7 195.393 109.525 195.261 109.365C195.129 109.206 194.944 109.08 194.707 108.989C194.47 108.898 194.192 108.852 193.873 108.852C193.294 108.852 192.64 109.035 191.911 109.399L191.323 108.21C192.34 107.709 193.301 107.458 194.208 107.458ZM193.743 113.781C194.185 113.781 194.589 113.676 194.953 113.467C195.322 113.253 195.555 112.961 195.65 112.592V111.778C195.113 111.591 194.52 111.498 193.873 111.498C193.44 111.498 193.076 111.607 192.779 111.826C192.483 112.045 192.335 112.323 192.335 112.66C192.335 112.997 192.467 113.268 192.732 113.474C192.996 113.679 193.333 113.781 193.743 113.781ZM200.494 109.023C200.731 108.536 201.075 108.153 201.526 107.875C201.978 107.597 202.497 107.458 203.085 107.458V108.914C202.31 108.914 201.684 109.124 201.205 109.543C200.731 109.962 200.494 110.516 200.494 111.204V114.861H198.785V107.622H200.494V109.023ZM207.546 113.31L208.031 114.458C207.826 114.636 207.587 114.775 207.313 114.875C207.04 114.98 206.767 115.032 206.493 115.032C205.892 115.032 205.399 114.836 205.017 114.444C204.638 114.052 204.449 113.551 204.449 112.94V109.037H203.396V107.622H204.449V105.633H206.117V107.622H207.751V109.037H206.117V112.735C206.117 112.981 206.183 113.184 206.315 113.344C206.452 113.499 206.623 113.576 206.828 113.576C207.129 113.576 207.368 113.487 207.546 113.31ZM212.314 113.515C212.652 113.515 212.998 113.446 213.353 113.31C213.709 113.173 213.987 113 214.187 112.79L215.267 113.911C214.958 114.239 214.522 114.508 213.962 114.718C213.406 114.927 212.861 115.032 212.328 115.032C211.64 115.032 211.009 114.873 210.434 114.554C209.86 114.23 209.402 113.777 209.06 113.193C208.719 112.605 208.548 111.949 208.548 111.225C208.548 110.149 208.901 109.254 209.607 108.538C210.318 107.818 211.191 107.458 212.225 107.458C213.337 107.458 214.206 107.85 214.83 108.634C215.459 109.413 215.773 110.477 215.773 111.826H210.311C210.421 112.332 210.653 112.74 211.009 113.05C211.369 113.36 211.804 113.515 212.314 113.515ZM212.301 108.969C211.827 108.969 211.41 109.11 211.05 109.393C210.694 109.671 210.453 110.046 210.325 110.52H214.133C214.028 110.046 213.82 109.671 213.511 109.393C213.201 109.11 212.797 108.969 212.301 108.969ZM222.333 105.072H224.042V114.861H222.333V113.74C222.041 114.155 221.681 114.474 221.253 114.697C220.824 114.921 220.348 115.032 219.824 115.032C218.862 115.032 218.069 114.679 217.445 113.973C216.821 113.262 216.509 112.35 216.509 111.238C216.509 110.135 216.821 109.231 217.445 108.524C218.069 107.813 218.862 107.458 219.824 107.458C220.89 107.458 221.727 107.886 222.333 108.743V105.072ZM220.289 113.576C220.89 113.576 221.38 113.357 221.759 112.92C222.141 112.482 222.333 111.922 222.333 111.238C222.333 110.559 222.141 110.003 221.759 109.57C221.38 109.133 220.89 108.914 220.289 108.914C219.678 108.914 219.177 109.133 218.785 109.57C218.398 110.003 218.204 110.559 218.204 111.238C218.204 111.917 218.4 112.478 218.792 112.92C219.184 113.357 219.683 113.576 220.289 113.576ZM232.239 107.458C233.191 107.458 233.948 107.736 234.508 108.292C235.069 108.848 235.349 109.586 235.349 110.507V114.861H233.681V113.993C233.421 114.321 233.084 114.576 232.67 114.759C232.255 114.941 231.831 115.032 231.398 115.032C230.619 115.032 229.974 114.82 229.463 114.396C228.953 113.973 228.698 113.414 228.698 112.722C228.698 112.02 228.983 111.443 229.552 110.992C230.122 110.536 230.822 110.309 231.651 110.309C232.321 110.309 232.998 110.441 233.681 110.705V110.507C233.681 110.288 233.649 110.083 233.586 109.892C233.522 109.7 233.424 109.525 233.292 109.365C233.159 109.206 232.975 109.08 232.738 108.989C232.501 108.898 232.223 108.852 231.904 108.852C231.325 108.852 230.671 109.035 229.942 109.399L229.354 108.21C230.37 107.709 231.332 107.458 232.239 107.458ZM231.774 113.781C232.216 113.781 232.619 113.676 232.984 113.467C233.353 113.253 233.586 112.961 233.681 112.592V111.778C233.143 111.591 232.551 111.498 231.904 111.498C231.471 111.498 231.106 111.607 230.81 111.826C230.514 112.045 230.366 112.323 230.366 112.66C230.366 112.997 230.498 113.268 230.762 113.474C231.027 113.679 231.364 113.781 231.774 113.781ZM243.806 115.032C243.123 115.032 242.482 114.861 241.885 114.519C241.293 114.173 240.821 113.708 240.47 113.125C240.119 112.542 239.944 111.913 239.944 111.238C239.944 110.732 240.049 110.247 240.258 109.782C240.468 109.317 240.746 108.916 241.092 108.579C241.443 108.237 241.858 107.966 242.336 107.766C242.815 107.56 243.314 107.458 243.833 107.458C244.367 107.458 244.87 107.563 245.344 107.772C245.818 107.982 246.231 108.269 246.581 108.634L245.433 109.639C245.233 109.42 244.989 109.244 244.702 109.112C244.415 108.98 244.121 108.914 243.82 108.914C243.227 108.914 242.715 109.144 242.282 109.604C241.853 110.065 241.639 110.609 241.639 111.238C241.639 111.876 241.853 112.425 242.282 112.886C242.715 113.346 243.227 113.576 243.82 113.576C244.134 113.576 244.437 113.508 244.729 113.371C245.021 113.234 245.269 113.05 245.474 112.817L246.623 113.809C245.857 114.624 244.918 115.032 243.806 115.032ZM250.694 107.458C251.646 107.458 252.403 107.736 252.963 108.292C253.524 108.848 253.804 109.586 253.804 110.507V114.861H252.136V113.993C251.876 114.321 251.539 114.576 251.124 114.759C250.71 114.941 250.286 115.032 249.853 115.032C249.074 115.032 248.429 114.82 247.918 114.396C247.408 113.973 247.153 113.414 247.153 112.722C247.153 112.02 247.438 111.443 248.007 110.992C248.577 110.536 249.276 110.309 250.106 110.309C250.776 110.309 251.453 110.441 252.136 110.705V110.507C252.136 110.288 252.104 110.083 252.04 109.892C251.977 109.7 251.879 109.525 251.746 109.365C251.614 109.206 251.43 109.08 251.193 108.989C250.956 108.898 250.678 108.852 250.359 108.852C249.78 108.852 249.126 109.035 248.397 109.399L247.809 108.21C248.825 107.709 249.787 107.458 250.694 107.458ZM250.229 113.781C250.671 113.781 251.074 113.676 251.439 113.467C251.808 113.253 252.04 112.961 252.136 112.592V111.778C251.598 111.591 251.006 111.498 250.359 111.498C249.926 111.498 249.561 111.607 249.265 111.826C248.969 112.045 248.821 112.323 248.821 112.66C248.821 112.997 248.953 113.268 249.217 113.474C249.481 113.679 249.819 113.781 250.229 113.781ZM255.23 114.861V105.072H256.939V114.861H255.23ZM258.405 114.861V105.072H260.114V114.861H258.405Z" fill="#3F4350"/>
<g opacity="0.8">
<path d="M36.0046 54.2063C36.0774 55.4424 35.7644 56.6703 35.1104 57.7137C34.6926 58.3565 34.1525 58.9072 33.5222 59.3333L26.33 65.2897C26.1999 65.3948 26.0387 65.452 25.8727 65.452C25.7068 65.452 25.5456 65.3948 25.4155 65.2897L18.1849 59.3333C17.5287 58.9087 16.9725 58.3416 16.5562 57.6724C15.8532 56.5622 15.5448 55.2398 15.6822 53.9257C15.836 52.5197 16.4883 51.2196 17.5162 50.2697C18.5441 49.3198 19.877 48.7856 21.2641 48.7677C22.7612 48.7677 24.0924 49.3351 25.2577 50.4698C25.333 50.5475 25.4226 50.6092 25.5214 50.6512C25.6202 50.6933 25.7262 50.715 25.8333 50.715C25.9404 50.715 26.0464 50.6933 26.1452 50.6512C26.244 50.6092 26.3336 50.5475 26.4089 50.4698C27.6228 49.2814 29.0268 48.7202 30.621 48.7863C32.2152 48.8523 33.5795 49.5345 34.7138 50.833C35.4894 51.7861 35.9422 52.9693 36.0046 54.2063Z" fill="#FFBC1F"/>
<path d="M25.4155 65.2877C25.5456 65.3928 25.7068 65.45 25.8728 65.45C26.0387 65.45 26.1999 65.3928 26.33 65.2877L33.5222 59.3312C34.1525 58.9052 34.6926 58.3544 35.1104 57.7116C35.7644 56.6682 36.0774 55.4404 36.0046 54.2042C36.3 57.332 25.4155 65.2877 25.4155 65.2877Z" fill="#CC8F00"/>
<path d="M18.6136 56.2343C18.6313 55.321 18.826 54.4202 19.1864 53.5838C19.5468 52.7475 20.0658 51.9921 20.7136 51.3611C20.7502 51.3254 20.7746 51.2788 20.7833 51.2279C20.7919 51.1771 20.7844 51.1248 20.7618 51.0786C20.7392 51.0325 20.7026 50.9949 20.6575 50.9715C20.6125 50.9481 20.5612 50.94 20.5113 50.9484C19.0263 51.2497 16.1575 52.3535 18.1665 56.3292C18.1901 56.3764 18.2282 56.4143 18.2751 56.4372C18.3219 56.4601 18.3748 56.4667 18.4256 56.4559C18.4764 56.4451 18.5223 56.4176 18.5563 56.3775C18.5903 56.3375 18.6104 56.2872 18.6136 56.2343Z" fill="#FFD470"/>
</g>
<path d="M47.8077 32.2361C47.3814 31.6617 47.0327 31.5564 46.4068 31.7651C46.1607 31.9738 45.8255 32.0733 45.6318 32.3395L45.5562 32.4122C45.4245 32.6439 45.1881 32.7952 45.0776 33.0479C44.8839 33.4902 44.5274 33.6223 44.0507 33.697C43.3106 33.8004 42.6208 34.0703 42.1674 34.7252C42.1248 34.7711 42.1093 34.8381 42.0511 34.8707C42.0976 34.8171 42.1325 34.7539 42.1751 34.6983C42.45 34.2965 42.81 33.9585 43.2302 33.7079C43.6504 33.4573 44.1208 33.3 44.6087 33.247C44.8761 33.2106 45.1358 33.1551 45.1261 32.799C45.0195 32.709 45.0563 32.5846 45.0428 32.4716C44.849 30.7599 44.9924 29.0424 44.9711 27.3269C44.9711 26.8137 44.849 26.3695 44.3026 26.1589C43.8046 26.1417 43.576 26.4442 43.4617 26.8674C43.4361 26.9622 43.418 27.0589 43.4074 27.1565C43.4304 26.8637 43.4174 26.5692 43.3687 26.2796C43.2311 26.1245 43.3028 25.9311 43.2738 25.7549C43.1924 25.2667 42.9482 24.968 42.4154 24.9699C41.8109 25.125 41.6404 25.5941 41.621 26.1187C41.5958 26.8061 41.5377 27.4896 41.528 28.1751C41.5105 29.2205 41.4485 30.2812 41.9523 31.2768C41.7799 31.1983 41.4253 31.6023 41.4544 31.1103C41.5454 29.6551 41.4408 28.198 41.5512 26.7429C41.608 26.3587 41.5402 25.9666 41.3575 25.6228C41.1889 25.5596 41.0242 25.4582 40.8382 25.5711C40.0845 25.9885 39.9895 26.6874 40.0535 27.4303C40.0891 27.8643 40.0702 28.3009 39.9973 28.7303C39.9548 28.992 39.9295 29.2562 39.9217 29.5211C39.9217 29.2186 39.9334 28.9161 39.9217 28.6135C39.9043 28.1291 40.0109 27.5968 39.6621 27.1622C39.4877 27.1622 39.3288 26.9707 39.1409 27.1143C38.8835 27.363 38.705 27.6803 38.6274 28.0276C38.486 29.0386 38.1876 30.0285 38.1333 31.0528C38.0261 32.8125 38.2287 34.5772 38.7321 36.2684C39.0363 37.2697 39.6059 37.9361 40.5534 38.2711C41.7411 38.6923 42.9521 38.9144 44.1127 38.1524C44.6481 36.9084 45.4025 35.7681 46.3409 34.7845C46.5829 34.5285 46.7794 34.234 46.9222 33.9133C47.0947 33.4328 47.269 32.956 47.6411 32.5731C47.7321 32.4831 47.8464 32.3931 47.8077 32.2361ZM43.328 27.9204C43.3493 27.729 43.3745 27.5375 43.39 27.3326C43.3862 27.4772 43.394 27.6219 43.4133 27.7653C43.4671 28.0465 43.4717 28.3347 43.4268 28.6174C43.2195 29.5575 43.3454 30.4746 43.6051 31.4032C43.2834 31.4032 43.0994 31.3515 43.1885 30.9762C43.2617 30.6302 43.282 30.2752 43.2486 29.9232C43.214 29.2546 43.2406 28.5843 43.328 27.9204ZM39.6737 31.8378C39.6369 31.8532 39.6117 31.8685 39.5885 31.8532C39.6692 31.7811 39.7325 31.6921 39.7737 31.5927C39.8149 31.4933 39.8331 31.386 39.8268 31.2788C39.8539 30.7216 39.8985 30.1663 39.9179 29.6092C39.9077 30.071 39.9638 30.5319 40.0845 30.9781C40.255 31.5947 40.2686 31.5889 39.6737 31.8378Z" fill="#FFBC1F"/>
<path d="M44.2988 26.155C43.6536 26.4288 43.4075 26.9362 43.5489 27.7576C43.596 28.2044 43.5797 28.6555 43.5005 29.0979C43.4172 29.8638 43.4327 30.6583 43.8202 31.3821C43.857 31.4529 43.8764 31.5333 43.9268 31.6693L42.8456 31.3993C43.2331 30.7751 43.0897 30.1031 43.0955 29.4559C43.109 28.3941 43.199 27.3345 43.3649 26.2852C43.486 26.1678 43.6421 26.0918 43.8101 26.0684C43.9782 26.0449 44.1494 26.0753 44.2988 26.155Z" fill="#CC8F00"/>
<path d="M46.9262 33.9114C46.8855 33.1819 47.3311 32.7013 47.8078 32.2361C48.0267 32.4276 47.8988 32.6018 47.7865 32.7607C47.5094 33.1513 47.2149 33.5285 46.9262 33.9114Z" fill="#FFD470"/>
<path d="M45.2152 32.6458C45.1749 32.6893 45.1434 32.74 45.1222 32.7951C45.0408 33.0383 44.8509 33.0804 44.6126 33.1168C43.5392 33.2776 42.6053 33.6778 42.0938 34.7117C42.0198 34.761 41.9621 34.8306 41.9276 34.9119C41.8932 34.9932 41.8836 35.0827 41.9 35.1693L42.1829 34.817C42.7177 34.1679 43.4326 33.8807 44.2522 33.7888C44.477 33.762 44.7947 33.8061 44.8897 33.5763C44.8897 33.5763 45.9437 32.0637 46.8738 31.6616C46.8796 31.6693 45.9515 31.5391 45.2152 32.6458Z" fill="#CC8F00"/>
<path d="M43.9926 38.0969C42.83 38.7632 41.6462 38.5392 40.4894 38.0969C39.883 37.8633 39.3269 37.5033 39.0827 36.86C38.174 34.4151 37.9918 31.7644 38.5577 29.2205C38.6952 28.5905 38.7223 27.93 39.042 27.3556C39.1126 27.2642 39.2102 27.1966 39.3212 27.1623C39.4323 27.128 39.5514 27.1287 39.6621 27.1641C39.5149 27.0724 39.3378 27.0398 39.1671 27.0729C38.9964 27.106 38.8449 27.2023 38.7437 27.3422L38.7127 27.3766C38.5765 27.5642 38.4755 27.7743 38.4143 27.997C38.0752 28.9888 37.9803 30.0285 37.9202 31.0605C37.8407 32.4141 37.8117 33.7793 38.2418 35.0813C38.473 35.709 38.6037 36.3686 38.6293 37.0361C38.6237 37.247 38.6745 37.4556 38.7766 37.6408C38.8786 37.826 39.0284 37.9814 39.2106 38.0911C40.1463 38.7424 41.2716 39.0738 42.4154 39.0351C43.1032 39.0102 43.7717 38.8321 44.1146 38.1371C44.0817 38.1313 44.0139 38.0835 43.9926 38.0969Z" fill="#CC8F00"/>
<path d="M41.3573 25.6209C41.3573 25.6209 40.8148 25.2016 40.1308 25.8373C39.943 26.0229 39.8242 26.2658 39.7937 26.5265C39.751 26.7372 39.7045 26.9497 39.66 27.1603C39.8537 28.2402 39.7917 29.3277 39.7181 30.4152C39.6774 31.0069 39.9119 31.6961 39.1659 32.0944C39.598 31.9929 39.9777 31.8627 40.3614 31.7459C40.5183 31.6981 40.6307 31.6521 40.4931 31.4798C40.0436 30.9265 40.1056 30.2601 40.0669 29.6149C40.0301 29.0405 40.2974 28.4852 40.2258 27.9243C40.1366 27.2273 40.1405 26.5725 40.4912 26.0096C40.5706 25.8813 40.8865 25.4773 41.3573 25.6209Z" fill="#CC8F00"/>
<path d="M42.9812 25.1479C42.8485 25.0294 42.684 24.951 42.5074 24.9222C42.3309 24.8933 42.1496 24.9152 41.9853 24.9852C41.9452 25 41.9063 25.0179 41.8691 25.0388C41.6606 25.1921 41.4881 25.388 41.3633 25.6132C41.4215 26.4962 41.4215 27.382 41.3633 28.265C41.3278 28.7147 41.3194 29.1661 41.3382 29.6168C41.3943 30.2601 41.4777 30.913 41.0669 31.5793C41.499 31.3783 41.9291 31.5621 42.3108 31.3113C42.0133 31.0268 41.8209 30.652 41.7644 30.2467C41.5474 28.9332 41.7528 27.6294 41.745 26.3216C41.7302 26.1132 41.7583 25.9039 41.8276 25.7065C41.8968 25.509 42.0059 25.3275 42.1481 25.1728C42.2624 25.0714 42.5453 24.901 42.9812 25.1479Z" fill="#CC8F00"/>
<path d="M49.131 32.573C49.503 32.9559 49.6774 33.4308 49.8498 33.9133C49.9932 34.2336 50.1897 34.528 50.4311 34.7845C51.3712 35.7686 52.1264 36.9103 52.6613 38.1562C53.8238 38.922 55.0348 38.6961 56.2225 38.2749C57.17 37.9398 57.7397 37.2735 58.0439 36.2722C58.5475 34.581 58.7495 32.8162 58.6406 31.0566C58.5883 30.0322 58.2899 29.0424 58.1485 28.0314C58.0701 27.6844 57.8918 27.3672 57.635 27.1181C57.4413 26.9784 57.2882 27.1641 57.1119 27.166C56.7631 27.6006 56.8697 28.1329 56.8523 28.6173C56.8406 28.9198 56.8523 29.2223 56.8523 29.5249C56.8438 29.2599 56.8179 28.9957 56.7748 28.7341C56.7028 28.3046 56.684 27.868 56.7186 27.434C56.7844 26.6912 56.6895 25.9923 55.9435 25.5749C55.7498 25.4619 55.5909 25.5634 55.4223 25.6266C55.2404 25.9706 55.1726 26.3625 55.2286 26.7467C55.3371 28.2018 55.2286 29.6589 55.3235 31.114C55.3545 31.6061 54.9999 31.2021 54.8275 31.2806C55.3313 30.2812 55.2693 29.2243 55.2518 28.1788C55.2402 27.4934 55.184 26.8099 55.1569 26.1225C55.1375 25.596 54.9631 25.1269 54.3644 24.9737C53.8316 24.9737 53.5894 25.2705 53.5041 25.7587C53.4751 25.9349 53.5487 26.1282 53.4111 26.2833C53.3624 26.573 53.3494 26.8675 53.3724 27.1602C53.3609 27.0628 53.3427 26.9662 53.3181 26.8711C53.2038 26.448 52.9752 26.1455 52.4772 26.1627C51.9308 26.3714 51.8165 26.8175 51.8087 27.3307C51.7874 29.0539 51.9327 30.7636 51.737 32.4754C51.7235 32.5883 51.7603 32.7128 51.6537 32.8028C51.6421 33.1589 51.9037 33.2144 52.1711 33.2508C52.6586 33.304 53.1286 33.4614 53.5485 33.712C53.9684 33.9626 54.3281 34.3005 54.6027 34.7021C54.6473 34.7576 54.6802 34.8208 54.7287 34.8744C54.6686 34.8419 54.655 34.7749 54.6124 34.7289C54.159 34.0741 53.4673 33.8041 52.7271 33.7007C52.2505 33.6357 51.9017 33.494 51.7002 33.0517C51.5898 32.8066 51.3553 32.6477 51.2236 32.416L51.148 32.3433C50.9426 32.0809 50.6152 31.9814 50.373 31.7688C49.7394 31.5602 49.4042 31.6731 48.9702 32.2399C48.9256 32.393 49.0438 32.483 49.131 32.573ZM53.5254 29.9231C53.4936 30.2752 53.5145 30.6301 53.5874 30.9762C53.6766 31.3591 53.4925 31.4089 53.1689 31.4031C53.4305 30.4745 53.5564 29.5574 53.3491 28.6173C53.3042 28.3346 53.3088 28.0464 53.3627 27.7653C53.3813 27.6218 53.3884 27.4771 53.384 27.3326C53.4014 27.524 53.4247 27.727 53.4479 27.9204C53.5338 28.5844 53.5597 29.2546 53.5254 29.9231ZM56.6914 30.9743C56.8115 30.5279 56.8669 30.067 56.8561 29.6053C56.8774 30.1624 56.9201 30.7177 56.9491 31.2749C56.942 31.3822 56.9597 31.4898 57.001 31.5893C57.0423 31.6889 57.1061 31.7778 57.1875 31.8493C57.1623 31.8646 57.139 31.8493 57.1022 31.8339C56.5054 31.5889 56.5209 31.5946 56.6914 30.9743Z" fill="#FFBC1F"/>
<path d="M52.4772 26.1551C53.1224 26.4288 53.3665 26.9362 53.227 27.7576C53.1793 28.2043 53.195 28.6555 53.2735 29.0979C53.3588 29.8638 53.3433 30.6583 52.9558 31.3821C52.9137 31.4753 52.8781 31.5713 52.8492 31.6693L53.9304 31.3993C53.5428 30.7751 53.6862 30.1031 53.6804 29.4559C53.6664 28.3915 53.5764 27.3295 53.4111 26.2776C53.289 26.1614 53.1325 26.0868 52.9645 26.0648C52.7965 26.0427 52.6257 26.0743 52.4772 26.1551Z" fill="#CC8F00"/>
<path d="M49.85 33.9114C49.8907 33.1819 49.445 32.7013 48.9664 32.2361C48.7475 32.4276 48.8773 32.6018 48.9897 32.7607C49.2668 33.1513 49.5613 33.5285 49.85 33.9114Z" fill="#FFD470"/>
<path d="M51.5608 32.6458C51.6004 32.6898 51.6319 32.7404 51.6538 32.7951C51.7352 33.0383 51.9251 33.0804 52.1615 33.1168C53.2368 33.2776 54.1707 33.6778 54.6803 34.7117C54.7529 34.7619 54.809 34.8319 54.8417 34.9133C54.8744 34.9946 54.8823 35.0836 54.8644 35.1693L54.5815 34.817C54.0487 34.1679 53.3337 33.8807 52.5141 33.7888C52.2894 33.762 51.9716 33.8061 51.8747 33.5763C51.8747 33.5763 50.8226 32.0637 49.8906 31.6616C49.8945 31.6693 50.8245 31.5391 51.5608 32.6458Z" fill="#CC8F00"/>
<path d="M52.7834 38.0969C53.946 38.7632 55.1298 38.5392 56.2866 38.0969C56.893 37.8633 57.4491 37.5033 57.6933 36.86C58.6005 34.4147 58.782 31.7642 58.2164 29.2205C58.0788 28.5905 58.0536 27.93 57.732 27.3556C57.6614 27.2642 57.5639 27.1966 57.4528 27.1623C57.3418 27.128 57.2227 27.1287 57.112 27.1641C57.2592 27.0724 57.4362 27.0398 57.607 27.0729C57.7777 27.106 57.9292 27.2023 58.0304 27.3422L58.0633 27.3766C58.1995 27.5642 58.3005 27.7743 58.3617 27.997C58.7008 28.9888 58.7957 30.0285 58.8558 31.0605C58.9352 32.4141 58.9643 33.7793 58.5342 35.0813C58.3021 35.7088 58.1713 36.3685 58.1467 37.0361C58.1519 37.2469 58.1009 37.4553 57.9989 37.6405C57.8969 37.8257 57.7474 37.9811 57.5654 38.0911C56.6296 38.7421 55.5044 39.0735 54.3606 39.0351C53.6708 39.0102 53.0043 38.8321 52.6594 38.1371C52.704 38.1313 52.7602 38.0835 52.7834 38.0969Z" fill="#CC8F00"/>
<path d="M55.4165 25.6209C55.4165 25.6209 55.959 25.2016 56.643 25.8373C56.8311 26.0225 56.9494 26.2657 56.9782 26.5265C57.0208 26.7372 57.0673 26.9497 57.1119 27.1603C56.9181 28.2402 56.9801 29.3277 57.0557 30.4152C57.0964 31.0069 56.8619 31.6961 57.6079 32.0944C57.1739 31.9929 56.7961 31.8627 56.4105 31.7459C56.2555 31.6981 56.1412 31.6521 56.2807 31.4798C56.7283 30.9265 56.6682 30.2601 56.7069 29.6149C56.7418 29.0405 56.4764 28.4852 56.5481 27.9243C56.6352 27.2273 56.6314 26.5725 56.2826 26.0096C56.2051 25.8813 55.8893 25.4773 55.4165 25.6209Z" fill="#CC8F00"/>
<path d="M53.7928 25.1479C53.9259 25.0292 54.0907 24.9507 54.2676 24.9219C54.4445 24.893 54.6261 24.915 54.7907 24.9852C54.8304 24.9996 54.8687 25.0175 54.905 25.0388C55.1133 25.1917 55.2853 25.3877 55.4088 25.6132C55.3516 26.4962 55.3516 27.382 55.4088 28.265C55.4447 28.7147 55.4524 29.1661 55.432 29.6168C55.3759 30.2601 55.2945 30.913 55.7033 31.5793C55.2732 31.3783 54.843 31.5621 54.4594 31.3112C54.7584 31.0279 54.951 30.6525 55.0058 30.2467C55.2228 28.9332 55.0193 27.6293 55.0271 26.3216C55.0415 26.1132 55.0132 25.9041 54.9439 25.7067C54.8747 25.5093 54.7659 25.3277 54.6241 25.1728C54.5136 25.0713 54.2307 24.9009 53.7928 25.1479Z" fill="#CC8F00"/>
<path d="M43.9984 22.2166L43.7814 22.6742C43.7184 22.8079 43.6933 22.9559 43.7086 23.1026C43.724 23.2492 43.7793 23.389 43.8686 23.5071L45.9999 26.3197C46.01 26.3318 46.0239 26.3403 46.0393 26.3438C46.0548 26.3473 46.071 26.3456 46.0854 26.3391C46.0998 26.3325 46.1115 26.3214 46.1189 26.3075C46.1262 26.2936 46.1287 26.2777 46.1259 26.2623C45.967 25.5539 45.4691 23.7407 44.2755 22.186C44.2579 22.1649 44.2352 22.1485 44.2096 22.1383C44.1839 22.128 44.1561 22.1243 44.1286 22.1273C44.1011 22.1303 44.0748 22.1401 44.0521 22.1557C44.0294 22.1713 44.0109 22.1922 43.9984 22.2166Z" fill="#3F4350"/>
<path d="M46.6431 23.1586C46.6431 23.1586 46.3389 22.948 46.1916 23.2543C46.087 23.4726 46.5017 24.2576 46.7535 24.6999C46.7636 24.718 46.7796 24.7322 46.7989 24.7403C46.8182 24.7483 46.8397 24.7496 46.8599 24.7441C46.88 24.7386 46.8977 24.7265 46.9101 24.7098C46.9224 24.6931 46.9287 24.6727 46.9279 24.652C46.9047 24.1427 46.8388 23.2601 46.6431 23.1586Z" fill="#3F4350"/>
<path d="M48.1739 19.9247L48.0092 19.9477C47.8985 19.9638 47.7988 20.0227 47.732 20.1113C47.6651 20.2 47.6366 20.3112 47.6527 20.4206L48.3793 25.4352C48.3817 25.4479 48.3886 25.4594 48.3986 25.4676C48.4087 25.4759 48.4214 25.4804 48.4345 25.4804C48.4476 25.4804 48.4603 25.4759 48.4704 25.4676C48.4805 25.4594 48.4873 25.4479 48.4897 25.4352L49.2163 20.4206C49.2324 20.3112 49.2039 20.2 49.1371 20.1113C49.0702 20.0227 48.9705 19.9638 48.8598 19.9477L48.6971 19.9247C48.5236 19.8998 48.3474 19.8998 48.1739 19.9247Z" fill="#3F4350"/>
<path d="M52.8705 22.2166L53.0875 22.6742C53.1509 22.8078 53.1763 22.9559 53.161 23.1026C53.1456 23.2494 53.0901 23.3892 53.0003 23.5071L50.869 26.3197C50.8589 26.3318 50.8451 26.3403 50.8296 26.3438C50.8142 26.3473 50.798 26.3456 50.7836 26.3391C50.7692 26.3325 50.7574 26.3214 50.7501 26.3075C50.7427 26.2936 50.7403 26.2777 50.7431 26.2623C50.9019 25.5539 51.3999 23.7407 52.5934 22.186C52.6111 22.1649 52.6337 22.1485 52.6594 22.1383C52.685 22.128 52.7129 22.1243 52.7404 22.1273C52.7679 22.1303 52.7941 22.1401 52.8169 22.1557C52.8396 22.1713 52.858 22.1922 52.8705 22.2166Z" fill="#3F4350"/>
<path d="M50.2277 23.1586C50.2277 23.1586 50.53 22.948 50.6772 23.2543C50.7819 23.4726 50.3672 24.2576 50.1153 24.6999C50.106 24.7188 50.0902 24.7338 50.0707 24.7424C50.0513 24.751 50.0294 24.7526 50.0089 24.7469C49.9884 24.7412 49.9706 24.7286 49.9585 24.7113C49.9465 24.694 49.9409 24.673 49.9429 24.652C49.9642 24.1427 50.0301 23.2601 50.2277 23.1586Z" fill="#3F4350"/>
<path d="M37.4227 84.0095C37.4227 84.0095 37.9772 77.4036 41.4688 74.0744C44.9604 70.7452 48.3011 68.5408 55.3511 68.1111C62.401 67.6815 66.819 74.794 67.5033 76.0621C68.1876 77.3302 70.2159 81.0926 70.2159 84.0095C70.2159 86.9265 70.2369 93.0539 66.0575 95.7753C61.8781 98.4966 57.8566 100.083 54.9721 99.9324C52.0875 99.7822 44.7955 99.1778 41.5285 94.6399C38.2614 90.102 37.4227 88.6522 37.4227 84.0095Z" fill="#FFBC1F"/>
<path d="M54.3896 71.5417C55.8779 71.1181 57.4741 71.299 58.8287 72.0447C58.8671 72.0669 58.9118 72.076 58.9559 72.0706C59 72.0651 59.0411 72.0454 59.0729 72.0146C59.1048 71.9837 59.1255 71.9433 59.1321 71.8995C59.1387 71.8558 59.1307 71.8111 59.1094 71.7722C58.4883 70.6369 56.8671 68.5688 54.1966 71.1993C54.1639 71.2304 54.1425 71.2714 54.1358 71.3159C54.1291 71.3604 54.1375 71.4058 54.1596 71.4451C54.1817 71.4843 54.2163 71.5151 54.258 71.5326C54.2996 71.5501 54.3459 71.5533 54.3896 71.5417Z" fill="#FFD470"/>
<path d="M47.8134 96.9246C46.1045 95.1779 43.827 92.9561 44.0551 85.358C44.2832 77.7599 46.108 75.07 47.4134 73.0508C48.1152 71.9539 50.5927 69.6867 53.6246 68.2614C47.7222 68.9286 44.6482 71.0316 41.4513 74.0743C37.9422 77.4001 37.4053 84.006 37.4053 84.006C37.4053 88.6487 38.2615 90.102 41.5285 94.6364C44.7956 99.1708 52.0841 99.7787 54.9722 99.9289C54.9686 99.9289 49.5224 98.6817 47.8134 96.9246Z" fill="#CC8F00"/>
<path d="M55.4354 95.1604C55.4354 95.1604 64.5592 95.3316 66.1594 86.8322C66.1905 86.676 66.1889 86.5151 66.1546 86.3596C66.1204 86.2041 66.0543 86.0573 65.9604 85.9284C65.8665 85.7995 65.7469 85.6913 65.609 85.6106C65.4712 85.5299 65.3181 85.4783 65.1593 85.4593C58.3672 84.7752 51.5182 84.8784 44.75 85.7667C44.596 85.7881 44.448 85.8404 44.315 85.9205C44.182 86.0005 44.0667 86.1067 43.9761 86.2325C43.8855 86.3582 43.8216 86.501 43.7881 86.6522C43.7547 86.8033 43.7524 86.9596 43.7815 87.1116C44.2236 89.4836 46.2379 94.6049 55.4354 95.1604Z" fill="#6F370B"/>
<path d="M56.425 94.5421C56.425 94.5421 50.8525 94.9578 48.5259 92.6347C48.5259 92.6347 48.7926 92.4356 48.8066 92.4251C49.1072 92.248 49.4291 92.1095 49.7646 92.0128C50.3474 91.846 50.9483 91.7498 51.5543 91.7264C51.9052 91.7089 52.2561 91.7019 52.6246 91.7264C52.995 91.7296 53.3632 91.7825 53.7194 91.8836C54.0708 91.9979 54.4094 92.1477 54.7301 92.3307C55.2091 92.5809 55.6299 92.9284 55.9653 93.3508C56.2288 93.6966 56.3882 94.1097 56.425 94.5421Z" fill="#C43133"/>
<path d="M46.9537 86.0218C46.9537 86.0218 54.9301 85.5292 63.8539 85.7178C63.8539 85.7178 63.3977 87.496 55.1582 87.496C53.2983 87.496 47.2976 88.2156 46.9537 86.0218Z" fill="white"/>
<path d="M50.8033 78.6821C50.891 80.7153 50.1014 82.3991 49.0206 82.4445C47.9398 82.4899 47.0099 80.8794 46.9151 78.8463C46.8204 76.8132 47.617 75.1328 48.6978 75.0874C49.7786 75.042 50.7191 76.6455 50.8033 78.6821Z" fill="#6F370B"/>
<path d="M62.952 78.6926C63.0292 80.4707 62.3309 81.9449 61.3904 81.9868C60.45 82.0288 59.6359 80.6174 59.5551 78.8428C59.4744 77.0682 60.1763 75.5904 61.1167 75.5485C62.0572 75.5066 62.8748 76.9144 62.952 78.6926Z" fill="#6F370B"/>
</svg>
