<svg width="102" height="123" viewBox="0 0 102 123" fill="none" xmlns="http://www.w3.org/2000/svg">
<path d="M101.675 27.9958L99.2951 16.0841C98.9372 14.3239 97.8962 12.7705 96.3932 11.7537C85.2271 4.1723 70.4235 0.223633 51.0198 0.223633C31.6161 0.223633 16.7992 4.17233 5.67313 11.7801C4.17424 12.8008 3.13447 14.3524 2.77129 16.1104L0.337456 27.9958C0.185123 28.743 0.245609 29.5171 0.512286 30.2325C0.778963 30.948 1.24145 31.5769 1.84857 32.0498C5.05801 34.5111 6.51563 37.7622 7.19763 41.8688C7.96388 46.1871 7.78145 50.6168 6.66269 54.8599C-3.27319 93.2541 13.456 110.72 50.9529 122.777C88.3963 110.72 105.166 93.2541 95.2298 54.8599C94.118 50.6158 93.9356 46.1876 94.6949 41.8688C95.4304 37.7622 96.888 34.5111 100.044 32.0498C100.675 31.593 101.163 30.9705 101.451 30.2536C101.74 29.5366 101.818 28.7542 101.675 27.9958Z" fill="#CC8F00"/>
<path d="M51.02 113.063C16.9465 101.507 8.05362 87.1076 15.8098 57.1241C17.2615 51.6123 17.4941 45.858 16.4918 40.2501C15.7625 35.3002 13.535 30.6815 10.0996 26.9959L11.7578 18.8353C21.4931 12.4911 34.3443 9.41113 51.02 9.41113C67.6957 9.41113 80.5334 12.4911 90.2687 18.8353L91.9269 26.9959C88.4957 30.6827 86.2728 35.3015 85.5481 40.2501C84.5457 45.858 84.7783 51.6123 86.2301 57.1241C93.9461 87.0944 85.0935 101.573 51.02 113.063Z" fill="#FFBC1F"/>
<path d="M51.02 113.063C16.9465 101.507 8.05362 87.1076 15.8098 57.1241C17.2615 51.6123 17.4941 45.858 16.4918 40.2501C15.7625 35.3002 13.535 30.6815 10.0996 26.9959L11.7578 18.8353C21.4931 12.4911 34.3443 9.41113 51.02 9.41113C67.6957 9.41113 80.5334 12.4911 90.2687 18.8353L91.9269 26.9959C88.4957 30.6827 86.2728 35.3015 85.5481 40.2501C84.5457 45.858 84.7783 51.6123 86.2301 57.1241C93.9461 87.0944 85.0935 101.573 51.02 113.063Z" fill="#FFBC1F"/>
<path d="M51.02 52.4516V9.4375C34.3443 9.4375 21.4931 12.5174 11.7578 18.8616L10.0996 27.0222C13.535 30.7078 15.7625 35.3266 16.4918 40.2765C17.2095 44.3075 17.2861 48.4238 16.7191 52.4779L51.02 52.4516Z" fill="#FFBC1F"/>
<path d="M51.0197 113.063C85.0932 101.573 93.9458 87.0941 86.2298 57.1237C85.8323 55.5847 85.5242 54.0247 85.3071 52.4512H51.0197V113.063Z" fill="#FFBC1F"/>
<path d="M15.8099 57.1237C8.05375 87.1072 16.9466 101.507 51.0201 113.063V52.4512H16.7192C16.5066 54.0245 16.203 55.5845 15.8099 57.1237V57.1237Z" fill="#FFD470"/>
<path d="M51.0197 9.4375V52.4779H85.3071C84.7378 48.4235 84.8191 44.3062 85.5478 40.2765C86.2725 35.3279 88.4954 30.709 91.9266 27.0222L90.2684 18.8616C80.5732 12.4911 67.682 9.4375 51.0197 9.4375Z" fill="#FFD470"/>
<path d="M71.0652 38.9336L43.464 68.8118L35.4538 62.8361H31.0007L43.464 82.7505L75.5183 38.9336H71.0652Z" fill="#6F370B"/>
</svg>
