<svg width="155" height="153" viewBox="0 0 155 153" fill="none" xmlns="http://www.w3.org/2000/svg">
<ellipse cx="80.5" cy="133" rx="54.5" ry="3" fill="black" fill-opacity="0.06"/>
<path d="M70.27 59.7713H129.709C130.798 59.7676 131.878 59.9781 132.885 60.3906C133.893 60.8032 134.81 61.4099 135.583 62.1759C136.355 62.9419 136.97 63.8524 137.39 64.8552C137.81 65.8581 138.028 66.9338 138.032 68.0208V105.718C138.028 106.805 137.81 107.88 137.39 108.883C136.97 109.886 136.355 110.797 135.583 111.563C134.81 112.329 133.893 112.935 132.885 113.348C131.878 113.76 130.798 113.971 129.709 113.967H120.937V128.078L107.779 113.967H70.2911C69.2018 113.971 68.1224 113.76 67.1146 113.348C66.1068 112.935 65.1904 112.329 64.4175 111.563C63.6447 110.797 63.0306 109.886 62.6103 108.883C62.1901 107.88 61.9719 106.805 61.9682 105.718V68.0208C61.9756 65.8291 62.8538 63.7298 64.4101 62.1833C65.9664 60.6368 68.0737 59.7694 70.27 59.7713Z" fill="#1E325C"/>
<path d="M107.779 113.967H70.291C69.2017 113.971 68.1224 113.76 67.1146 113.348C66.1068 112.935 65.1903 112.329 64.4175 111.563C63.6446 110.797 63.0305 109.886 62.6103 108.883C62.19 107.88 61.9718 106.805 61.9681 105.718V82.832C61.9681 82.832 64.5857 103.995 65.0559 105.858C65.526 107.721 66.4594 110.508 70.8805 110.97C75.3016 111.432 107.779 113.967 107.779 113.967Z" fill="#0A111F"/>
<path d="M131.863 75.5561C131.259 73.4228 130.238 71.4298 128.859 69.6919C127.48 67.954 125.77 66.5055 123.828 65.4298C123.713 65.3717 123.621 65.2773 123.565 65.1611C123.51 65.045 123.494 64.9138 123.522 64.788C123.549 64.6623 123.617 64.5492 123.716 64.4663C123.815 64.3835 123.938 64.3357 124.067 64.3303C127.814 64.1062 135.379 64.9046 133.007 75.5001C132.982 75.6294 132.914 75.7466 132.815 75.8329C132.715 75.9192 132.589 75.9697 132.457 75.9761C132.325 75.9826 132.195 75.9447 132.088 75.8685C131.98 75.7924 131.901 75.6823 131.863 75.5561Z" fill="#32539A"/>
<path d="M107.838 26.4362L32.1885 26.4362C30.8021 26.4315 29.4284 26.6994 28.1458 27.2245C26.8632 27.7496 25.6967 28.5217 24.7131 29.4966C23.7295 30.4716 22.9479 31.6303 22.413 32.9067C21.8782 34.1831 21.6004 35.5521 21.5958 36.9356V84.9135C21.6004 86.297 21.8782 87.666 22.413 88.9424C22.9479 90.2188 23.7295 91.3775 24.7131 92.3524C25.6967 93.3274 26.8632 94.0995 28.1458 94.6246C29.4284 95.1497 30.8021 95.4175 32.1885 95.4129H43.3529V113.372L60.0994 95.4129H107.811C109.198 95.4175 110.572 95.1497 111.854 94.6246C113.137 94.0995 114.303 93.3274 115.287 92.3524C116.27 91.3775 117.052 90.2188 117.587 88.9424C118.122 87.666 118.399 86.297 118.404 84.9135V36.9356C118.395 34.1462 117.277 31.4743 115.296 29.5061C113.316 27.5378 110.633 26.4338 107.838 26.4362Z" fill="#1C58D9"/>
<path d="M60.0995 95.4128H107.811C109.198 95.4175 110.572 95.1496 111.854 94.6245C113.137 94.0994 114.303 93.3273 115.287 92.3524C116.271 91.3774 117.052 90.2187 117.587 88.9423C118.122 87.6659 118.4 86.2969 118.404 84.9134V55.7862C118.404 55.7862 115.073 82.7209 114.474 85.0917C113.876 87.4625 112.688 91.0098 107.061 91.5981C101.434 92.1863 60.0995 95.4128 60.0995 95.4128Z" fill="black" fill-opacity="0.16"/>
<path d="M29.4467 46.5259C30.2154 43.8109 31.5147 41.2743 33.2698 39.0625C35.025 36.8506 37.2012 35.007 39.6733 33.6379C39.8197 33.5641 39.9374 33.4438 40.008 33.296C40.0786 33.1482 40.0981 32.9812 40.0633 32.8212C40.0286 32.6612 39.9417 32.5171 39.8161 32.4117C39.6906 32.3063 39.5336 32.2454 39.3696 32.2386C34.6002 31.9534 24.9721 32.9695 27.9909 46.4546C28.0228 46.6192 28.109 46.7684 28.2359 46.8783C28.3628 46.9881 28.523 47.0523 28.6908 47.0605C28.8586 47.0687 29.0243 47.0205 29.1613 46.9236C29.2984 46.8267 29.3989 46.6866 29.4467 46.5259Z" fill="white" fill-opacity="0.16"/>
<path d="M70.3926 66.9654C72.0377 66.9654 73.4981 66.3443 74.7739 65.1021C76.0496 63.8263 76.6875 62.3491 76.6875 60.6704C76.6875 58.9582 76.0664 57.481 74.8242 56.2388C73.582 54.9965 72.1048 54.3754 70.3926 54.3754C68.7139 54.3754 67.2367 55.0133 65.9609 56.2891C64.7187 57.5649 64.0976 59.0253 64.0976 60.6704C64.0976 62.2819 64.7187 63.7591 65.9609 65.1021C67.3038 66.3443 68.7811 66.9654 70.3926 66.9654ZM70.3926 39.6704C76.1336 39.6704 81.0688 41.7352 85.1983 45.8647C89.3278 49.9941 91.3926 54.9294 91.3926 60.6704V63.692C91.3926 65.7064 90.6875 67.5025 89.2775 69.0805C87.8674 70.457 86.1216 71.1452 84.0401 71.1452C81.5221 71.1452 79.4573 70.1045 77.8458 68.0229C75.7643 70.1045 73.2967 71.1452 70.4429 71.1452C67.5892 71.1452 65.1216 70.1045 63.0401 68.0229C60.9585 65.9414 59.9178 63.4906 59.9178 60.6704C59.9178 57.8503 60.9417 55.3659 62.9897 53.2172C65.0712 51.2028 67.5389 50.1956 70.3926 50.1956C73.2463 50.1956 75.7307 51.2028 77.8458 53.2172C79.8602 55.3323 80.8674 57.8167 80.8674 60.6704V63.692C80.8674 64.5313 81.1863 65.2867 81.8242 65.9582C82.4621 66.6296 83.2007 66.9654 84.0401 66.9654C84.913 66.9654 85.6516 66.6464 86.2559 66.0085C86.8602 65.3707 87.1624 64.5985 87.1624 63.692V60.6704C87.1624 56.0373 85.5173 52.0925 82.2271 48.8359C78.9705 45.5457 75.0257 43.9006 70.3926 43.9006C65.7595 43.9006 61.7979 45.5457 58.5077 48.8359C55.2511 52.0925 53.6228 56.0373 53.6228 60.6704C53.6228 65.3035 55.2511 69.2651 58.5077 72.5553C61.7979 75.8119 65.7595 77.4402 70.3926 77.4402H80.8674V81.6704H70.3926C64.7187 81.6704 59.8003 79.5889 55.6372 75.4258C51.4741 71.2627 49.3926 66.3275 49.3926 60.6201C49.3926 54.9126 51.4741 49.9941 55.6372 45.8647C59.8003 41.7352 64.7187 39.6704 70.3926 39.6704Z" fill="white"/>
</svg>
