<svg class="diagram-root" style="background: #f5f6f6" xmlns="http://www.w3.org/2000/svg" xmlns:xlink="http://www.w3.org/1999/xlink"><style>.diagram-root { font-family: "Helvetica Neue", sans-serif; font-size: 12px; } .t { overflow: visible; } .t-bg { y: 40; fill: #fff;   } .th { fill: #005aa0;   } .tht { fill: #fff; font-size: 14px;  } .tf { fill: #323c46; overflow: visible; } .tf.pk { fill: #005aa0; font-weight: bold; } .tf.fk { font-weight: bold; } .ty { fill: #adb1b5; font-weight: normal; text-anchor: end; } .r { fill: transparent; stroke: #c3c3c3; stroke-width: 1; } .l { stroke: 1; } .i { fill: #c2c7ce; stroke: #c2c7ce; } .i.ix { fill: #afb3b6; stroke: #000; } .fa { fill: transparent; overflow: visible; } .fa .bg.hover { fill: #f7f7f7; } .c { cy: 12; r: 4; stroke: #d2d2dc; fill: #d2d2dc; } .hr { fill: transparent; stroke: #323c46; stroke-opacity: 0.035; stroke-width: 13; } .dc { stroke: #fa5a3c; fill: #fa5a3c; } .x { stroke: white; stroke-width: 1; } .hl .th { fill: #1b9bff; } .hl .tht {  } .fhl .bg { fill: #e7f4ff; } .fhls .bg {  } .r.hl { stroke: #1b9bff; } .dim { opacity: 0.25; }</style><g class="drawing-wrapper" transform="translate(1384.496666666667, 993.3333333333338) scale(1,1)"><g class="rs"><path d="M -1243.93 -137.41000000000003 m -1, 0 a 1,1 0 1,0 2,0 a 1,1 0 1,0 -2,0 M -1243.93 -137.41000000000003 m -0.5, 0 a 0.5,0.5 0 1,0 1,0 a 0.5,0.5 0 1,0 -1,0  M-1243.93 -137.41000000000003 L-1243.93 -137.41000000000003 -1255.93 -137.41000000000003 M -1243.93 -131.41000000000003 m -1, 0 a 1,1 0 1,0 2,0 a 1,1 0 1,0 -2,0 M -1243.93 -131.41000000000003 m -0.5, 0 a 0.5,0.5 0 1,0 1,0 a 0.5,0.5 0 1,0 -1,0  M-1243.93 -131.41000000000003 L-1243.93 -131.41000000000003 -1250.93 -137.41000000000003 -1243.93 -143.41000000000003 M -1243.93 -143.41000000000003 m -1, 0 a 1,1 0 1,0 2,0 a 1,1 0 1,0 -2,0 M -1243.93 -143.41000000000003 m -0.5, 0 a 0.5,0.5 0 1,0 1,0 a 0.5,0.5 0 1,0 -1,0  M-1255.93 -137.41000000000003 C -1305.93 -137.41000000000003, -1405.104 58.9, -1090.64 58.9 M -1078.64 58.9 m -1, 0 a 1,1 0 1,0 2,0 a 1,1 0 1,0 -2,0 M -1078.64 58.9 m -0.5, 0 a 0.5,0.5 0 1,0 1,0 a 0.5,0.5 0 1,0 -1,0  M-1078.64 58.9 L-1078.64 58.9 -1090.64 58.9 M-1084.64 64.9 L-1084.64 64.9 -1084.64 52.9" id="h420399448" class="r"></path><path d="M -1233.33 -446.80999999999995 m -1, 0 a 1,1 0 1,0 2,0 a 1,1 0 1,0 -2,0 M -1233.33 -446.80999999999995 m -0.5, 0 a 0.5,0.5 0 1,0 1,0 a 0.5,0.5 0 1,0 -1,0  M-1233.33 -446.80999999999995 L-1233.33 -446.80999999999995 -1245.33 -446.80999999999995 M -1233.33 -440.80999999999995 m -1, 0 a 1,1 0 1,0 2,0 a 1,1 0 1,0 -2,0 M -1233.33 -440.80999999999995 m -0.5, 0 a 0.5,0.5 0 1,0 1,0 a 0.5,0.5 0 1,0 -1,0  M-1233.33 -440.80999999999995 L-1233.33 -440.80999999999995 -1240.33 -446.80999999999995 -1233.33 -452.80999999999995 M -1233.33 -452.80999999999995 m -1, 0 a 1,1 0 1,0 2,0 a 1,1 0 1,0 -2,0 M -1233.33 -452.80999999999995 m -0.5, 0 a 0.5,0.5 0 1,0 1,0 a 0.5,0.5 0 1,0 -1,0  M-1245.33 -446.80999999999995 C -1312.2900000000002 -446.80999999999995, -1305.93 -287.41, -1255.93 -287.41 M -1243.93 -287.41 m -1, 0 a 1,1 0 1,0 2,0 a 1,1 0 1,0 -2,0 M -1243.93 -287.41 m -0.5, 0 a 0.5,0.5 0 1,0 1,0 a 0.5,0.5 0 1,0 -1,0  M-1243.93 -287.41 L-1243.93 -287.41 -1255.93 -287.41 M-1249.93 -281.41 L-1249.93 -281.41 -1249.93 -293.41" id="h3236919717" class="r"></path><path d="M -1080.95 -421.80999999999995 m -1, 0 a 1,1 0 1,0 2,0 a 1,1 0 1,0 -2,0 M -1080.95 -421.80999999999995 m -0.5, 0 a 0.5,0.5 0 1,0 1,0 a 0.5,0.5 0 1,0 -1,0  M-1080.95 -421.80999999999995 L-1080.95 -421.80999999999995 -1068.95 -421.80999999999995 M-1074.95 -415.80999999999995 L-1074.95 -415.80999999999995 -1074.95 -427.80999999999995 M-1068.95 -421.80999999999995 Q -1028.88 -421.80999999999995, -988.81 -541.99 T -908.67 -662.17 M -896.67 -662.17 m -1, 0 a 1,1 0 1,0 2,0 a 1,1 0 1,0 -2,0 M -896.67 -662.17 m -0.5, 0 a 0.5,0.5 0 1,0 1,0 a 0.5,0.5 0 1,0 -1,0  M-896.67 -662.17 L-896.67 -662.17 -908.67 -662.17 M-902.67 -656.17 L-902.67 -656.17 -902.67 -668.17" id="h511165265" class="r"></path><path d="M -714.83 -363.1 m -1, 0 a 1,1 0 1,0 2,0 a 1,1 0 1,0 -2,0 M -714.83 -363.1 m -0.5, 0 a 0.5,0.5 0 1,0 1,0 a 0.5,0.5 0 1,0 -1,0  M-714.83 -363.1 L-714.83 -363.1 -726.83 -363.1 M-720.83 -357.1 L-720.83 -357.1 -720.83 -369.1 M-726.83 -363.1 Q -812.36 -363.1, -897.89 -392.45 T -1068.95 -421.80999999999995 M -1080.95 -421.80999999999995 m -1, 0 a 1,1 0 1,0 2,0 a 1,1 0 1,0 -2,0 M -1080.95 -421.80999999999995 m -0.5, 0 a 0.5,0.5 0 1,0 1,0 a 0.5,0.5 0 1,0 -1,0  M-1080.95 -421.80999999999995 L-1080.95 -421.80999999999995 -1068.95 -421.80999999999995 M-1074.95 -415.80999999999995 L-1074.95 -415.80999999999995 -1074.95 -427.80999999999995" id="h236758280" class="r"></path><path d="M -531.4 -313.1 m -1, 0 a 1,1 0 1,0 2,0 a 1,1 0 1,0 -2,0 M -531.4 -313.1 m -0.5, 0 a 0.5,0.5 0 1,0 1,0 a 0.5,0.5 0 1,0 -1,0  M-531.4 -313.1 L-531.4 -313.1 -519.4 -313.1 M -531.4 -307.1 m -1, 0 a 1,1 0 1,0 2,0 a 1,1 0 1,0 -2,0 M -531.4 -307.1 m -0.5, 0 a 0.5,0.5 0 1,0 1,0 a 0.5,0.5 0 1,0 -1,0  M-531.4 -307.1 L-531.4 -307.1 -524.4 -313.1 -531.4 -319.1 M -531.4 -319.1 m -1, 0 a 1,1 0 1,0 2,0 a 1,1 0 1,0 -2,0 M -531.4 -319.1 m -0.5, 0 a 0.5,0.5 0 1,0 1,0 a 0.5,0.5 0 1,0 -1,0  M-519.4 -313.1 Q -490.46 -313.1, -461.53 5.44 T -403.67 323.99 M -391.67 323.99 m -1, 0 a 1,1 0 1,0 2,0 a 1,1 0 1,0 -2,0 M -391.67 323.99 m -0.5, 0 a 0.5,0.5 0 1,0 1,0 a 0.5,0.5 0 1,0 -1,0  M-391.67 323.99 L-391.67 323.99 -403.67 323.99 M-397.67 329.99 L-397.67 329.99 -397.67 317.99" id="h588518274" class="r"></path><path d="M -714.83 -163.10000000000002 m -1, 0 a 1,1 0 1,0 2,0 a 1,1 0 1,0 -2,0 M -714.83 -163.10000000000002 m -0.5, 0 a 0.5,0.5 0 1,0 1,0 a 0.5,0.5 0 1,0 -1,0  M-714.83 -163.10000000000002 L-714.83 -163.10000000000002 -726.83 -163.10000000000002 M -714.83 -157.10000000000002 m -1, 0 a 1,1 0 1,0 2,0 a 1,1 0 1,0 -2,0 M -714.83 -157.10000000000002 m -0.5, 0 a 0.5,0.5 0 1,0 1,0 a 0.5,0.5 0 1,0 -1,0  M-714.83 -157.10000000000002 L-714.83 -157.10000000000002 -721.83 -163.10000000000002 -714.83 -169.10000000000002 M -714.83 -169.10000000000002 m -1, 0 a 1,1 0 1,0 2,0 a 1,1 0 1,0 -2,0 M -714.83 -169.10000000000002 m -0.5, 0 a 0.5,0.5 0 1,0 1,0 a 0.5,0.5 0 1,0 -1,0  M-726.83 -163.10000000000002 Q -753.25 -163.10000000000002, -779.67 -52.1 T -832.51 58.9 M -844.51 58.9 m -1, 0 a 1,1 0 1,0 2,0 a 1,1 0 1,0 -2,0 M -844.51 58.9 m -0.5, 0 a 0.5,0.5 0 1,0 1,0 a 0.5,0.5 0 1,0 -1,0  M-844.51 58.9 L-844.51 58.9 -832.51 58.9 M-838.51 64.9 L-838.51 64.9 -838.51 52.9" id="h1363680013" class="r"></path><path d="M -425.71 -721.1 m -1, 0 a 1,1 0 1,0 2,0 a 1,1 0 1,0 -2,0 M -425.71 -721.1 m -0.5, 0 a 0.5,0.5 0 1,0 1,0 a 0.5,0.5 0 1,0 -1,0  M-425.71 -721.1 L-425.71 -721.1 -437.71 -721.1 M-431.71 -715.1 L-431.71 -715.1 -431.71 -727.1 M-437.71 -721.1 Q -458.13 -721.1, -478.55 -542.1 T -519.4 -363.1 M -531.4 -363.1 m -1, 0 a 1,1 0 1,0 2,0 a 1,1 0 1,0 -2,0 M -531.4 -363.1 m -0.5, 0 a 0.5,0.5 0 1,0 1,0 a 0.5,0.5 0 1,0 -1,0  M-531.4 -363.1 L-531.4 -363.1 -519.4 -363.1 M-525.4 -357.1 L-525.4 -357.1 -525.4 -369.1" id="h2258327595" class="r"></path><path d="M -367.5 -3.3599999999999994 m -1, 0 a 1,1 0 1,0 2,0 a 1,1 0 1,0 -2,0 M -367.5 -3.3599999999999994 m -0.5, 0 a 0.5,0.5 0 1,0 1,0 a 0.5,0.5 0 1,0 -1,0  M-367.5 -3.3599999999999994 L-367.5 -3.3599999999999994 -379.5 -3.3599999999999994 M -367.5 2.6400000000000006 m -1, 0 a 1,1 0 1,0 2,0 a 1,1 0 1,0 -2,0 M -367.5 2.6400000000000006 m -0.5, 0 a 0.5,0.5 0 1,0 1,0 a 0.5,0.5 0 1,0 -1,0  M-367.5 2.6400000000000006 L-367.5 2.6400000000000006 -374.5 -3.3599999999999994 -367.5 -9.36 M -367.5 -9.36 m -1, 0 a 1,1 0 1,0 2,0 a 1,1 0 1,0 -2,0 M -367.5 -9.36 m -0.5, 0 a 0.5,0.5 0 1,0 1,0 a 0.5,0.5 0 1,0 -1,0  M-379.5 -3.3599999999999994 Q -414.47 -3.3599999999999994, -449.45 -183.23 T -519.4 -363.1 M -531.4 -363.1 m -1, 0 a 1,1 0 1,0 2,0 a 1,1 0 1,0 -2,0 M -531.4 -363.1 m -0.5, 0 a 0.5,0.5 0 1,0 1,0 a 0.5,0.5 0 1,0 -1,0  M-531.4 -363.1 L-531.4 -363.1 -519.4 -363.1 M-525.4 -357.1 L-525.4 -357.1 -525.4 -369.1" id="h2186527401" class="r"></path><path d="M -212.32 21.64 m -1, 0 a 1,1 0 1,0 2,0 a 1,1 0 1,0 -2,0 M -212.32 21.64 m -0.5, 0 a 0.5,0.5 0 1,0 1,0 a 0.5,0.5 0 1,0 -1,0  M-212.32 21.64 L-212.32 21.64 -200.32 21.64 M -212.32 27.64 m -1, 0 a 1,1 0 1,0 2,0 a 1,1 0 1,0 -2,0 M -212.32 27.64 m -0.5, 0 a 0.5,0.5 0 1,0 1,0 a 0.5,0.5 0 1,0 -1,0  M-212.32 27.64 L-212.32 27.64 -205.32 21.64 -212.32 15.64 M -212.32 15.64 m -1, 0 a 1,1 0 1,0 2,0 a 1,1 0 1,0 -2,0 M -212.32 15.64 m -0.5, 0 a 0.5,0.5 0 1,0 1,0 a 0.5,0.5 0 1,0 -1,0  M-200.32 21.64 C -130.99200000000002 21.64, -138.24 323.99, -188.24 323.99 M -200.24 323.99 m -1, 0 a 1,1 0 1,0 2,0 a 1,1 0 1,0 -2,0 M -200.24 323.99 m -0.5, 0 a 0.5,0.5 0 1,0 1,0 a 0.5,0.5 0 1,0 -1,0  M-200.24 323.99 L-200.24 323.99 -188.24 323.99 M-194.24 329.99 L-194.24 329.99 -194.24 317.99" id="h3081020774" class="r"></path><path d="M -29.4 -440.86 m -1, 0 a 1,1 0 1,0 2,0 a 1,1 0 1,0 -2,0 M -29.4 -440.86 m -0.5, 0 a 0.5,0.5 0 1,0 1,0 a 0.5,0.5 0 1,0 -1,0  M-29.4 -440.86 L-29.4 -440.86 -41.4 -440.86 M -29.4 -434.86 m -1, 0 a 1,1 0 1,0 2,0 a 1,1 0 1,0 -2,0 M -29.4 -434.86 m -0.5, 0 a 0.5,0.5 0 1,0 1,0 a 0.5,0.5 0 1,0 -1,0  M-29.4 -434.86 L-29.4 -434.86 -36.4 -440.86 -29.4 -446.86 M -29.4 -446.86 m -1, 0 a 1,1 0 1,0 2,0 a 1,1 0 1,0 -2,0 M -29.4 -446.86 m -0.5, 0 a 0.5,0.5 0 1,0 1,0 a 0.5,0.5 0 1,0 -1,0  M-41.4 -440.86 Q -160.9 -440.86, -280.4 -401.98 T -519.4 -363.1 M -531.4 -363.1 m -1, 0 a 1,1 0 1,0 2,0 a 1,1 0 1,0 -2,0 M -531.4 -363.1 m -0.5, 0 a 0.5,0.5 0 1,0 1,0 a 0.5,0.5 0 1,0 -1,0  M-531.4 -363.1 L-531.4 -363.1 -519.4 -363.1 M-525.4 -357.1 L-525.4 -357.1 -525.4 -369.1" id="h3848521437" class="r"></path><path d="M 118.99 -365.86 m -1, 0 a 1,1 0 1,0 2,0 a 1,1 0 1,0 -2,0 M 118.99 -365.86 m -0.5, 0 a 0.5,0.5 0 1,0 1,0 a 0.5,0.5 0 1,0 -1,0  M118.99 -365.86 L118.99 -365.86 130.99 -365.86 M 118.99 -359.86 m -1, 0 a 1,1 0 1,0 2,0 a 1,1 0 1,0 -2,0 M 118.99 -359.86 m -0.5, 0 a 0.5,0.5 0 1,0 1,0 a 0.5,0.5 0 1,0 -1,0  M118.99 -359.86 L118.99 -359.86 125.99 -365.86 118.99 -371.86 M 118.99 -371.86 m -1, 0 a 1,1 0 1,0 2,0 a 1,1 0 1,0 -2,0 M 118.99 -371.86 m -0.5, 0 a 0.5,0.5 0 1,0 1,0 a 0.5,0.5 0 1,0 -1,0  M130.99 -365.86 C 180.99 -365.86, 188.68800000000002 -159.44, 118.16 -159.44 M 106.16 -159.44 m -1, 0 a 1,1 0 1,0 2,0 a 1,1 0 1,0 -2,0 M 106.16 -159.44 m -0.5, 0 a 0.5,0.5 0 1,0 1,0 a 0.5,0.5 0 1,0 -1,0  M106.16 -159.44 L106.16 -159.44 118.16 -159.44 M112.16 -153.44 L112.16 -153.44 112.16 -165.44" id="h760752868" class="r"></path><path d="M 413.33 -211.57 m -1, 0 a 1,1 0 1,0 2,0 a 1,1 0 1,0 -2,0 M 413.33 -211.57 m -0.5, 0 a 0.5,0.5 0 1,0 1,0 a 0.5,0.5 0 1,0 -1,0  M413.33 -211.57 L413.33 -211.57 401.33 -211.57 M 413.33 -205.57 m -1, 0 a 1,1 0 1,0 2,0 a 1,1 0 1,0 -2,0 M 413.33 -205.57 m -0.5, 0 a 0.5,0.5 0 1,0 1,0 a 0.5,0.5 0 1,0 -1,0  M413.33 -205.57 L413.33 -205.57 406.33 -211.57 413.33 -217.57 M 413.33 -217.57 m -1, 0 a 1,1 0 1,0 2,0 a 1,1 0 1,0 -2,0 M 413.33 -217.57 m -0.5, 0 a 0.5,0.5 0 1,0 1,0 a 0.5,0.5 0 1,0 -1,0  M401.33 -211.57 Q 330.54 -211.57, 259.75 -185.5 T 118.16 -159.44 M 106.16 -159.44 m -1, 0 a 1,1 0 1,0 2,0 a 1,1 0 1,0 -2,0 M 106.16 -159.44 m -0.5, 0 a 0.5,0.5 0 1,0 1,0 a 0.5,0.5 0 1,0 -1,0  M106.16 -159.44 L106.16 -159.44 118.16 -159.44 M112.16 -153.44 L112.16 -153.44 112.16 -165.44" id="h418021963" class="r"></path><path d="M -896.67 -662.17 m -1, 0 a 1,1 0 1,0 2,0 a 1,1 0 1,0 -2,0 M -896.67 -662.17 m -0.5, 0 a 0.5,0.5 0 1,0 1,0 a 0.5,0.5 0 1,0 -1,0  M-896.67 -662.17 L-896.67 -662.17 -908.67 -662.17 M-902.67 -656.17 L-902.67 -656.17 -902.67 -668.17 M-908.67 -662.17 C -958.67 -662.17, -1067.774 -363.1, -726.83 -363.1 M -714.83 -363.1 m -1, 0 a 1,1 0 1,0 2,0 a 1,1 0 1,0 -2,0 M -714.83 -363.1 m -0.5, 0 a 0.5,0.5 0 1,0 1,0 a 0.5,0.5 0 1,0 -1,0  M-714.83 -363.1 L-714.83 -363.1 -726.83 -363.1 M-720.83 -357.1 L-720.83 -357.1 -720.83 -369.1" id="h61349008" class="r"></path><path d="M -234.17 -313.83 m -1, 0 a 1,1 0 1,0 2,0 a 1,1 0 1,0 -2,0 M -234.17 -313.83 m -0.5, 0 a 0.5,0.5 0 1,0 1,0 a 0.5,0.5 0 1,0 -1,0  M-234.17 -313.83 L-234.17 -313.83 -246.17 -313.83 M-240.17 -307.83 L-240.17 -307.83 -240.17 -319.83 M-246.17 -313.83 Q -314.47 -313.83, -382.78 -338.46 T -519.4 -363.1 M -531.4 -363.1 m -1, 0 a 1,1 0 1,0 2,0 a 1,1 0 1,0 -2,0 M -531.4 -363.1 m -0.5, 0 a 0.5,0.5 0 1,0 1,0 a 0.5,0.5 0 1,0 -1,0  M-531.4 -363.1 L-531.4 -363.1 -519.4 -363.1 M-525.4 -357.1 L-525.4 -357.1 -525.4 -369.1" id="h2668826212" class="r"></path><path d="M -1248.65 257.65999999999997 m -1, 0 a 1,1 0 1,0 2,0 a 1,1 0 1,0 -2,0 M -1248.65 257.65999999999997 m -0.5, 0 a 0.5,0.5 0 1,0 1,0 a 0.5,0.5 0 1,0 -1,0  M-1248.65 257.65999999999997 L-1248.65 257.65999999999997 -1236.65 257.65999999999997 M-1242.65 263.65999999999997 L-1242.65 263.65999999999997 -1242.65 251.65999999999997 M-1236.65 257.65999999999997 Q -1200.14 257.65999999999997, -1163.64 158.28 T -1090.64 58.9 M -1078.64 58.9 m -1, 0 a 1,1 0 1,0 2,0 a 1,1 0 1,0 -2,0 M -1078.64 58.9 m -0.5, 0 a 0.5,0.5 0 1,0 1,0 a 0.5,0.5 0 1,0 -1,0  M-1078.64 58.9 L-1078.64 58.9 -1090.64 58.9 M-1084.64 64.9 L-1084.64 64.9 -1084.64 52.9" id="h1447908320" class="r"></path><path d="M -72.26 -134.44 m -1, 0 a 1,1 0 1,0 2,0 a 1,1 0 1,0 -2,0 M -72.26 -134.44 m -0.5, 0 a 0.5,0.5 0 1,0 1,0 a 0.5,0.5 0 1,0 -1,0  M-72.26 -134.44 L-72.26 -134.44 -84.26 -134.44 M -72.26 -128.44 m -1, 0 a 1,1 0 1,0 2,0 a 1,1 0 1,0 -2,0 M -72.26 -128.44 m -0.5, 0 a 0.5,0.5 0 1,0 1,0 a 0.5,0.5 0 1,0 -1,0  M-72.26 -128.44 L-72.26 -128.44 -79.26 -134.44 -72.26 -140.44 M -72.26 -140.44 m -1, 0 a 1,1 0 1,0 2,0 a 1,1 0 1,0 -2,0 M -72.26 -140.44 m -0.5, 0 a 0.5,0.5 0 1,0 1,0 a 0.5,0.5 0 1,0 -1,0  M-84.26 -134.44 Q -193.04 -134.44, -301.83 -248.77 T -519.4 -363.1 M -531.4 -363.1 m -1, 0 a 1,1 0 1,0 2,0 a 1,1 0 1,0 -2,0 M -531.4 -363.1 m -0.5, 0 a 0.5,0.5 0 1,0 1,0 a 0.5,0.5 0 1,0 -1,0  M-531.4 -363.1 L-531.4 -363.1 -519.4 -363.1 M-525.4 -357.1 L-525.4 -357.1 -525.4 -369.1" id="h1601047164" class="r"></path><path d="M -72.26 215.56 m -1, 0 a 1,1 0 1,0 2,0 a 1,1 0 1,0 -2,0 M -72.26 215.56 m -0.5, 0 a 0.5,0.5 0 1,0 1,0 a 0.5,0.5 0 1,0 -1,0  M-72.26 215.56 L-72.26 215.56 -84.26 215.56 M -72.26 221.56 m -1, 0 a 1,1 0 1,0 2,0 a 1,1 0 1,0 -2,0 M -72.26 221.56 m -0.5, 0 a 0.5,0.5 0 1,0 1,0 a 0.5,0.5 0 1,0 -1,0  M-72.26 221.56 L-72.26 221.56 -79.26 215.56 -72.26 209.56 M -72.26 209.56 m -1, 0 a 1,1 0 1,0 2,0 a 1,1 0 1,0 -2,0 M -72.26 209.56 m -0.5, 0 a 0.5,0.5 0 1,0 1,0 a 0.5,0.5 0 1,0 -1,0  M-84.26 215.56 Q -110.25 215.56, -136.25 269.77 T -188.24 323.99 M -200.24 323.99 m -1, 0 a 1,1 0 1,0 2,0 a 1,1 0 1,0 -2,0 M -200.24 323.99 m -0.5, 0 a 0.5,0.5 0 1,0 1,0 a 0.5,0.5 0 1,0 -1,0  M-200.24 323.99 L-200.24 323.99 -188.24 323.99 M-194.24 329.99 L-194.24 329.99 -194.24 317.99" id="h1439300020" class="r"></path><path d="M -420 -483 m -1, 0 a 1,1 0 1,0 2,0 a 1,1 0 1,0 -2,0 M -420 -483 m -0.5, 0 a 0.5,0.5 0 1,0 1,0 a 0.5,0.5 0 1,0 -1,0  M-420 -483 L-420 -483 -432 -483 M -420 -477 m -1, 0 a 1,1 0 1,0 2,0 a 1,1 0 1,0 -2,0 M -420 -477 m -0.5, 0 a 0.5,0.5 0 1,0 1,0 a 0.5,0.5 0 1,0 -1,0  M-420 -477 L-420 -477 -427 -483 -420 -489 M -420 -489 m -1, 0 a 1,1 0 1,0 2,0 a 1,1 0 1,0 -2,0 M -420 -489 m -0.5, 0 a 0.5,0.5 0 1,0 1,0 a 0.5,0.5 0 1,0 -1,0  M-432 -483 Q -453.85 -483, -475.7 -423.05 T -519.4 -363.1 M -531.4 -363.1 m -1, 0 a 1,1 0 1,0 2,0 a 1,1 0 1,0 -2,0 M -531.4 -363.1 m -0.5, 0 a 0.5,0.5 0 1,0 1,0 a 0.5,0.5 0 1,0 -1,0  M-531.4 -363.1 L-531.4 -363.1 -519.4 -363.1 M-525.4 -357.1 L-525.4 -357.1 -525.4 -369.1" id="h3334028534" class="r"></path><path d="M 232.5 -300.5 m -1, 0 a 1,1 0 1,0 2,0 a 1,1 0 1,0 -2,0 M 232.5 -300.5 m -0.5, 0 a 0.5,0.5 0 1,0 1,0 a 0.5,0.5 0 1,0 -1,0  M232.5 -300.5 L232.5 -300.5 220.5 -300.5 M 232.5 -294.5 m -1, 0 a 1,1 0 1,0 2,0 a 1,1 0 1,0 -2,0 M 232.5 -294.5 m -0.5, 0 a 0.5,0.5 0 1,0 1,0 a 0.5,0.5 0 1,0 -1,0  M232.5 -294.5 L232.5 -294.5 225.5 -300.5 232.5 -306.5 M 232.5 -306.5 m -1, 0 a 1,1 0 1,0 2,0 a 1,1 0 1,0 -2,0 M 232.5 -306.5 m -0.5, 0 a 0.5,0.5 0 1,0 1,0 a 0.5,0.5 0 1,0 -1,0  M220.5 -300.5 Q 194.92 -300.5, 169.33 -229.97 T 118.16 -159.44 M 106.16 -159.44 m -1, 0 a 1,1 0 1,0 2,0 a 1,1 0 1,0 -2,0 M 106.16 -159.44 m -0.5, 0 a 0.5,0.5 0 1,0 1,0 a 0.5,0.5 0 1,0 -1,0  M106.16 -159.44 L106.16 -159.44 118.16 -159.44 M112.16 -153.44 L112.16 -153.44 112.16 -165.44" id="h358418373" class="r"></path><path d="M -108 625 m -1, 0 a 1,1 0 1,0 2,0 a 1,1 0 1,0 -2,0 M -108 625 m -0.5, 0 a 0.5,0.5 0 1,0 1,0 a 0.5,0.5 0 1,0 -1,0  M-108 625 L-108 625 -120 625 M -108 631 m -1, 0 a 1,1 0 1,0 2,0 a 1,1 0 1,0 -2,0 M -108 631 m -0.5, 0 a 0.5,0.5 0 1,0 1,0 a 0.5,0.5 0 1,0 -1,0  M-108 631 L-108 631 -115 625 -108 619 M -108 619 m -1, 0 a 1,1 0 1,0 2,0 a 1,1 0 1,0 -2,0 M -108 619 m -0.5, 0 a 0.5,0.5 0 1,0 1,0 a 0.5,0.5 0 1,0 -1,0  M-120 625 Q -137.06 625, -154.12 474.5 T -188.24 323.99 M -200.24 323.99 m -1, 0 a 1,1 0 1,0 2,0 a 1,1 0 1,0 -2,0 M -200.24 323.99 m -0.5, 0 a 0.5,0.5 0 1,0 1,0 a 0.5,0.5 0 1,0 -1,0  M-200.24 323.99 L-200.24 323.99 -188.24 323.99 M-194.24 329.99 L-194.24 329.99 -194.24 317.99" id="h3154765667" class="r"></path><path d="M 273.71 285.5 m -1, 0 a 1,1 0 1,0 2,0 a 1,1 0 1,0 -2,0 M 273.71 285.5 m -0.5, 0 a 0.5,0.5 0 1,0 1,0 a 0.5,0.5 0 1,0 -1,0  M273.71 285.5 L273.71 285.5 285.71 285.5 M 273.71 291.5 m -1, 0 a 1,1 0 1,0 2,0 a 1,1 0 1,0 -2,0 M 273.71 291.5 m -0.5, 0 a 0.5,0.5 0 1,0 1,0 a 0.5,0.5 0 1,0 -1,0  M273.71 291.5 L273.71 291.5 280.71 285.5 273.71 279.5 M 273.71 279.5 m -1, 0 a 1,1 0 1,0 2,0 a 1,1 0 1,0 -2,0 M 273.71 279.5 m -0.5, 0 a 0.5,0.5 0 1,0 1,0 a 0.5,0.5 0 1,0 -1,0  M285.71 285.5 C 335.71 285.5, 436.24 -159.44, 118.16 -159.44 M 106.16 -159.44 m -1, 0 a 1,1 0 1,0 2,0 a 1,1 0 1,0 -2,0 M 106.16 -159.44 m -0.5, 0 a 0.5,0.5 0 1,0 1,0 a 0.5,0.5 0 1,0 -1,0  M106.16 -159.44 L106.16 -159.44 118.16 -159.44 M112.16 -153.44 L112.16 -153.44 112.16 -165.44" id="h2696104365" class="r"></path><path d="M 133 310.5 m -1, 0 a 1,1 0 1,0 2,0 a 1,1 0 1,0 -2,0 M 133 310.5 m -0.5, 0 a 0.5,0.5 0 1,0 1,0 a 0.5,0.5 0 1,0 -1,0  M133 310.5 L133 310.5 121 310.5 M 133 316.5 m -1, 0 a 1,1 0 1,0 2,0 a 1,1 0 1,0 -2,0 M 133 316.5 m -0.5, 0 a 0.5,0.5 0 1,0 1,0 a 0.5,0.5 0 1,0 -1,0  M133 316.5 L133 316.5 126 310.5 133 304.5 M 133 304.5 m -1, 0 a 1,1 0 1,0 2,0 a 1,1 0 1,0 -2,0 M 133 304.5 m -0.5, 0 a 0.5,0.5 0 1,0 1,0 a 0.5,0.5 0 1,0 -1,0  M121 310.5 Q 43.69 310.5, -33.62 317.25 T -188.24 323.99 M -200.24 323.99 m -1, 0 a 1,1 0 1,0 2,0 a 1,1 0 1,0 -2,0 M -200.24 323.99 m -0.5, 0 a 0.5,0.5 0 1,0 1,0 a 0.5,0.5 0 1,0 -1,0  M-200.24 323.99 L-200.24 323.99 -188.24 323.99 M-194.24 329.99 L-194.24 329.99 -194.24 317.99" id="h521657100" class="r"></path><path d="M -1206.56 133.67000000000002 m -1, 0 a 1,1 0 1,0 2,0 a 1,1 0 1,0 -2,0 M -1206.56 133.67000000000002 m -0.5, 0 a 0.5,0.5 0 1,0 1,0 a 0.5,0.5 0 1,0 -1,0  M-1206.56 133.67000000000002 L-1206.56 133.67000000000002 -1194.56 133.67000000000002 M-1200.56 139.67000000000002 L-1200.56 139.67000000000002 -1200.56 127.67000000000002 M-1194.56 133.67000000000002 Q -1168.58 133.67000000000002, -1142.6 96.29 T -1090.64 58.9 M -1078.64 58.9 m -1, 0 a 1,1 0 1,0 2,0 a 1,1 0 1,0 -2,0 M -1078.64 58.9 m -0.5, 0 a 0.5,0.5 0 1,0 1,0 a 0.5,0.5 0 1,0 -1,0  M-1078.64 58.9 L-1078.64 58.9 -1090.64 58.9 M-1084.64 64.9 L-1084.64 64.9 -1084.64 52.9" id="h2895453731" class="r"></path><path d="M -686.67 433.33 m -1, 0 a 1,1 0 1,0 2,0 a 1,1 0 1,0 -2,0 M -686.67 433.33 m -0.5, 0 a 0.5,0.5 0 1,0 1,0 a 0.5,0.5 0 1,0 -1,0  M-686.67 433.33 L-686.67 433.33 -698.67 433.33 M -686.67 439.33 m -1, 0 a 1,1 0 1,0 2,0 a 1,1 0 1,0 -2,0 M -686.67 439.33 m -0.5, 0 a 0.5,0.5 0 1,0 1,0 a 0.5,0.5 0 1,0 -1,0  M-686.67 439.33 L-686.67 439.33 -693.67 433.33 -686.67 427.33 M -686.67 427.33 m -1, 0 a 1,1 0 1,0 2,0 a 1,1 0 1,0 -2,0 M -686.67 427.33 m -0.5, 0 a 0.5,0.5 0 1,0 1,0 a 0.5,0.5 0 1,0 -1,0  M-698.67 433.33 Q -732.13 433.33, -765.59 246.11 T -832.51 58.9 M -844.51 58.9 m -1, 0 a 1,1 0 1,0 2,0 a 1,1 0 1,0 -2,0 M -844.51 58.9 m -0.5, 0 a 0.5,0.5 0 1,0 1,0 a 0.5,0.5 0 1,0 -1,0  M-844.51 58.9 L-844.51 58.9 -832.51 58.9 M-838.51 64.9 L-838.51 64.9 -838.51 52.9" id="h3298013238" class="r"></path><path d="M -549.41 458.33 m -1, 0 a 1,1 0 1,0 2,0 a 1,1 0 1,0 -2,0 M -549.41 458.33 m -0.5, 0 a 0.5,0.5 0 1,0 1,0 a 0.5,0.5 0 1,0 -1,0  M-549.41 458.33 L-549.41 458.33 -537.41 458.33 M -549.41 464.33 m -1, 0 a 1,1 0 1,0 2,0 a 1,1 0 1,0 -2,0 M -549.41 464.33 m -0.5, 0 a 0.5,0.5 0 1,0 1,0 a 0.5,0.5 0 1,0 -1,0  M-549.41 464.33 L-549.41 464.33 -542.41 458.33 -549.41 452.33 M -549.41 452.33 m -1, 0 a 1,1 0 1,0 2,0 a 1,1 0 1,0 -2,0 M -549.41 452.33 m -0.5, 0 a 0.5,0.5 0 1,0 1,0 a 0.5,0.5 0 1,0 -1,0  M-537.41 458.33 Q -503.97 458.33, -470.54 391.16 T -403.67 323.99 M -391.67 323.99 m -1, 0 a 1,1 0 1,0 2,0 a 1,1 0 1,0 -2,0 M -391.67 323.99 m -0.5, 0 a 0.5,0.5 0 1,0 1,0 a 0.5,0.5 0 1,0 -1,0  M-391.67 323.99 L-391.67 323.99 -403.67 323.99 M-397.67 329.99 L-397.67 329.99 -397.67 317.99" id="h3653345566" class="r"></path><path d="M -1202.69 452.5 m -1, 0 a 1,1 0 1,0 2,0 a 1,1 0 1,0 -2,0 M -1202.69 452.5 m -0.5, 0 a 0.5,0.5 0 1,0 1,0 a 0.5,0.5 0 1,0 -1,0  M-1202.69 452.5 L-1202.69 452.5 -1190.69 452.5 M -1202.69 458.5 m -1, 0 a 1,1 0 1,0 2,0 a 1,1 0 1,0 -2,0 M -1202.69 458.5 m -0.5, 0 a 0.5,0.5 0 1,0 1,0 a 0.5,0.5 0 1,0 -1,0  M-1202.69 458.5 L-1202.69 458.5 -1195.69 452.5 -1202.69 446.5 M -1202.69 446.5 m -1, 0 a 1,1 0 1,0 2,0 a 1,1 0 1,0 -2,0 M -1202.69 446.5 m -0.5, 0 a 0.5,0.5 0 1,0 1,0 a 0.5,0.5 0 1,0 -1,0  M-1190.69 452.5 Q -1165.68 452.5, -1140.66 255.7 T -1090.64 58.9 M -1078.64 58.9 m -1, 0 a 1,1 0 1,0 2,0 a 1,1 0 1,0 -2,0 M -1078.64 58.9 m -0.5, 0 a 0.5,0.5 0 1,0 1,0 a 0.5,0.5 0 1,0 -1,0  M-1078.64 58.9 L-1078.64 58.9 -1090.64 58.9 M-1084.64 64.9 L-1084.64 64.9 -1084.64 52.9" id="h1954224245" class="r"></path><path d="M 543.5 -63 m -1, 0 a 1,1 0 1,0 2,0 a 1,1 0 1,0 -2,0 M 543.5 -63 m -0.5, 0 a 0.5,0.5 0 1,0 1,0 a 0.5,0.5 0 1,0 -1,0  M543.5 -63 L543.5 -63 531.5 -63 M537.5 -57 L537.5 -57 537.5 -69 M531.5 -63 Q 428.17 -63, 324.83 -111.22 T 118.16 -159.44 M 106.16 -159.44 m -1, 0 a 1,1 0 1,0 2,0 a 1,1 0 1,0 -2,0 M 106.16 -159.44 m -0.5, 0 a 0.5,0.5 0 1,0 1,0 a 0.5,0.5 0 1,0 -1,0  M106.16 -159.44 L106.16 -159.44 118.16 -159.44 M112.16 -153.44 L112.16 -153.44 112.16 -165.44" id="h2933771524" class="r"></path><path d="M -828.67 504.17 m -1, 0 a 1,1 0 1,0 2,0 a 1,1 0 1,0 -2,0 M -828.67 504.17 m -0.5, 0 a 0.5,0.5 0 1,0 1,0 a 0.5,0.5 0 1,0 -1,0  M-828.67 504.17 L-828.67 504.17 -816.67 504.17 M -828.67 510.17 m -1, 0 a 1,1 0 1,0 2,0 a 1,1 0 1,0 -2,0 M -828.67 510.17 m -0.5, 0 a 0.5,0.5 0 1,0 1,0 a 0.5,0.5 0 1,0 -1,0  M-828.67 510.17 L-828.67 510.17 -821.67 504.17 -828.67 498.17 M -828.67 498.17 m -1, 0 a 1,1 0 1,0 2,0 a 1,1 0 1,0 -2,0 M -828.67 498.17 m -0.5, 0 a 0.5,0.5 0 1,0 1,0 a 0.5,0.5 0 1,0 -1,0  M-816.67 504.17 C -766.67 504.17, -757.1659999999999 58.9, -832.51 58.9 M -844.51 58.9 m -1, 0 a 1,1 0 1,0 2,0 a 1,1 0 1,0 -2,0 M -844.51 58.9 m -0.5, 0 a 0.5,0.5 0 1,0 1,0 a 0.5,0.5 0 1,0 -1,0  M-844.51 58.9 L-844.51 58.9 -832.51 58.9 M-838.51 64.9 L-838.51 64.9 -838.51 52.9" id="h1842016957" class="r"></path><path d="M 463 477 m -1, 0 a 1,1 0 1,0 2,0 a 1,1 0 1,0 -2,0 M 463 477 m -0.5, 0 a 0.5,0.5 0 1,0 1,0 a 0.5,0.5 0 1,0 -1,0  M463 477 L463 477 451 477 M 463 483 m -1, 0 a 1,1 0 1,0 2,0 a 1,1 0 1,0 -2,0 M 463 483 m -0.5, 0 a 0.5,0.5 0 1,0 1,0 a 0.5,0.5 0 1,0 -1,0  M463 483 L463 483 456 477 463 471 M 463 471 m -1, 0 a 1,1 0 1,0 2,0 a 1,1 0 1,0 -2,0 M 463 471 m -0.5, 0 a 0.5,0.5 0 1,0 1,0 a 0.5,0.5 0 1,0 -1,0  M451 477 C 401 477, 352.7 -63, 531.5 -63 M 543.5 -63 m -1, 0 a 1,1 0 1,0 2,0 a 1,1 0 1,0 -2,0 M 543.5 -63 m -0.5, 0 a 0.5,0.5 0 1,0 1,0 a 0.5,0.5 0 1,0 -1,0  M543.5 -63 L543.5 -63 531.5 -63 M537.5 -57 L537.5 -57 537.5 -69" id="h143027402" class="r"></path><path d="M 463 502 m -1, 0 a 1,1 0 1,0 2,0 a 1,1 0 1,0 -2,0 M 463 502 m -0.5, 0 a 0.5,0.5 0 1,0 1,0 a 0.5,0.5 0 1,0 -1,0  M463 502 L463 502 451 502 M 463 508 m -1, 0 a 1,1 0 1,0 2,0 a 1,1 0 1,0 -2,0 M 463 508 m -0.5, 0 a 0.5,0.5 0 1,0 1,0 a 0.5,0.5 0 1,0 -1,0  M463 508 L463 508 456 502 463 496 M 463 496 m -1, 0 a 1,1 0 1,0 2,0 a 1,1 0 1,0 -2,0 M 463 496 m -0.5, 0 a 0.5,0.5 0 1,0 1,0 a 0.5,0.5 0 1,0 -1,0  M451 502 Q 291.19 502, 131.38 413 T -188.24 323.99 M -200.24 323.99 m -1, 0 a 1,1 0 1,0 2,0 a 1,1 0 1,0 -2,0 M -200.24 323.99 m -0.5, 0 a 0.5,0.5 0 1,0 1,0 a 0.5,0.5 0 1,0 -1,0  M-200.24 323.99 L-200.24 323.99 -188.24 323.99 M-194.24 329.99 L-194.24 329.99 -194.24 317.99" id="h2873233944" class="r"></path></g><g class="hrs"></g><g class="ts"><svg width="149.39" height="250" x="-1243.93" y="-344.41" id="h1903237708" class="t"><rect height="40" width="149.39" class="th"></rect><text x="13" y="25" class="tht">Category</text><rect height="210" width="149.39" class="t-bg"></rect><text x="13" y="61" class="tf pk">id<tspan x="136.39" class="ty">string</tspan></text><path d="M7,14A2,2 0 0,1 5,12A2,2 0 0,1 7,10A2,2 0 0,1 9,12A2,2 0 0,1 7,14M12.65,10C11.83,7.67 9.61,6 7, 6A6, 6 0 0, 0 1, 12A6, 6 0 0, 0 7, 18C9.61, 18 11.83, 16.33 12.65, 14H17V18H21V14H23V10H12.65Z" class="i pk" transform="translate(87.04624999999999, 48) scale(0.65)"></path><text x="13" y="86" class="tf">collapsed<tspan x="136.39" class="ty">bool</tspan></text><text x="13" y="111" class="tf">display_name<tspan x="136.39" class="ty">string</tspan></text><text x="13" y="136" class="tf">muted<tspan x="136.39" class="ty">bool</tspan></text><text x="13" y="161" class="tf">sort_order<tspan x="136.39" class="ty">number</tspan></text><text x="13" y="186" class="tf">sorting<tspan x="136.39" class="ty">string</tspan></text><text x="13" y="211" class="tf fk">team_id<tspan x="136.39" class="ty">string</tspan></text><path d="M814.545 581.818v-23.273H535.273v-93.09h-46.546v93.09H209.455v139.637H256V605.09h232.727v93.09h46.546v-93.09H768v93.09h46.545V581.819zM674.91 465.455H349.091V139.636h325.818v325.819zM325.82 884.364H139.635V698.182h186.182v186.182z m279.272 0H418.909V698.182h186.182v186.182z m279.273 0H698.182V698.182h186.182v186.182zM395.636 418.909h232.728V186.182H395.636v232.727zM186.182 837.82h93.09v-93.092h-93.09v93.091z m279.273 0h93.09v-93.092h-93.09v93.091z m279.272 0h93.091v-93.092h-93.09v93.091z" class="i ix" transform="translate(92.04624999999999, 200) scale(0.014)"></path><text x="13" y="236" class="tf">type<tspan x="136.39" class="ty">string</tspan></text></svg><svg width="152.38" height="150" x="-1233.33" y="-528.81" id="h2075771240" class="t"><rect height="40" width="152.38" class="th"></rect><text x="13" y="25" class="tht">CategoryChannel</text><rect height="110" width="152.38" class="t-bg"></rect><text x="13" y="61" class="tf pk">id<tspan x="139.38" class="ty">string</tspan></text><path d="M7,14A2,2 0 0,1 5,12A2,2 0 0,1 7,10A2,2 0 0,1 9,12A2,2 0 0,1 7,14M12.65,10C11.83,7.67 9.61,6 7, 6A6, 6 0 0, 0 1, 12A6, 6 0 0, 0 7, 18C9.61, 18 11.83, 16.33 12.65, 14H17V18H21V14H23V10H12.65Z" class="i pk" transform="translate(90.03625, 48) scale(0.65)"></path><text x="13" y="86" class="tf fk">category_id<tspan x="139.38" class="ty">string</tspan></text><path d="M814.545 581.818v-23.273H535.273v-93.09h-46.546v93.09H209.455v139.637H256V605.09h232.727v93.09h46.546v-93.09H768v93.09h46.545V581.819zM674.91 465.455H349.091V139.636h325.818v325.819zM325.82 884.364H139.635V698.182h186.182v186.182z m279.272 0H418.909V698.182h186.182v186.182z m279.273 0H698.182V698.182h186.182v186.182zM395.636 418.909h232.728V186.182H395.636v232.727zM186.182 837.82h93.09v-93.092h-93.09v93.091z m279.273 0h93.09v-93.092h-93.09v93.091z m279.272 0h93.091v-93.092h-93.09v93.091z" class="i ix" transform="translate(95.03625, 75) scale(0.014)"></path><text x="13" y="111" class="tf fk">channel_id<tspan x="139.38" class="ty">string</tspan></text><path d="M814.545 581.818v-23.273H535.273v-93.09h-46.546v93.09H209.455v139.637H256V605.09h232.727v93.09h46.546v-93.09H768v93.09h46.545V581.819zM674.91 465.455H349.091V139.636h325.818v325.819zM325.82 884.364H139.635V698.182h186.182v186.182z m279.272 0H418.909V698.182h186.182v186.182z m279.273 0H698.182V698.182h186.182v186.182zM395.636 418.909h232.728V186.182H395.636v232.727zM186.182 837.82h93.09v-93.092h-93.09v93.091z m279.273 0h93.09v-93.092h-93.09v93.091z m279.272 0h93.091v-93.092h-93.09v93.091z" class="i ix" transform="translate(95.03625, 100) scale(0.014)"></path><text x="13" y="136" class="tf">sort_order<tspan x="139.38" class="ty">number</tspan></text></svg><svg width="183.43" height="325" x="-714.83" y="-420.1" id="h201265243" class="t"><rect height="40" width="183.43" class="th"></rect><text x="13" y="25" class="tht">Channel</text><rect height="285" width="183.43" class="t-bg"></rect><text x="13" y="61" class="tf pk">id<tspan x="170.43" class="ty">string</tspan></text><path d="M7,14A2,2 0 0,1 5,12A2,2 0 0,1 7,10A2,2 0 0,1 9,12A2,2 0 0,1 7,14M12.65,10C11.83,7.67 9.61,6 7, 6A6, 6 0 0, 0 1, 12A6, 6 0 0, 0 7, 18C9.61, 18 11.83, 16.33 12.65, 14H17V18H21V14H23V10H12.65Z" class="i pk" transform="translate(121.08625, 48) scale(0.65)"></path><text x="13" y="86" class="tf">create_at<tspan x="170.43" class="ty">string</tspan></text><text x="13" y="111" class="tf fk">creator_id<tspan x="170.43" class="ty">string</tspan></text><path d="M814.545 581.818v-23.273H535.273v-93.09h-46.546v93.09H209.455v139.637H256V605.09h232.727v93.09h46.546v-93.09H768v93.09h46.545V581.819zM674.91 465.455H349.091V139.636h325.818v325.819zM325.82 884.364H139.635V698.182h186.182v186.182z m279.272 0H418.909V698.182h186.182v186.182z m279.273 0H698.182V698.182h186.182v186.182zM395.636 418.909h232.728V186.182H395.636v232.727zM186.182 837.82h93.09v-93.092h-93.09v93.091z m279.273 0h93.09v-93.092h-93.09v93.091z m279.272 0h93.091v-93.092h-93.09v93.091z" class="i ix" transform="translate(126.08625, 100) scale(0.014)"></path><text x="13" y="136" class="tf">delete_at<tspan x="170.43" class="ty">number</tspan></text><text x="13" y="161" class="tf">display_name<tspan x="170.43" class="ty">string</tspan></text><text x="13" y="186" class="tf">is_group_constrained<tspan x="170.43" class="ty">bool</tspan></text><text x="13" y="211" class="tf">name<tspan x="170.43" class="ty">string</tspan></text><path d="M814.545 581.818v-23.273H535.273v-93.09h-46.546v93.09H209.455v139.637H256V605.09h232.727v93.09h46.546v-93.09H768v93.09h46.545V581.819zM674.91 465.455H349.091V139.636h325.818v325.819zM325.82 884.364H139.635V698.182h186.182v186.182z m279.272 0H418.909V698.182h186.182v186.182z m279.273 0H698.182V698.182h186.182v186.182zM395.636 418.909h232.728V186.182H395.636v232.727zM186.182 837.82h93.09v-93.092h-93.09v93.091z m279.273 0h93.09v-93.092h-93.09v93.091z m279.272 0h93.091v-93.092h-93.09v93.091z" class="i ix" transform="translate(126.08625, 200) scale(0.014)"></path><text x="13" y="236" class="tf">shared<tspan x="170.43" class="ty">bool</tspan></text><text x="13" y="261" class="tf fk">team_id<tspan x="170.43" class="ty">string</tspan></text><path d="M814.545 581.818v-23.273H535.273v-93.09h-46.546v93.09H209.455v139.637H256V605.09h232.727v93.09h46.546v-93.09H768v93.09h46.545V581.819zM674.91 465.455H349.091V139.636h325.818v325.819zM325.82 884.364H139.635V698.182h186.182v186.182z m279.272 0H418.909V698.182h186.182v186.182z m279.273 0H698.182V698.182h186.182v186.182zM395.636 418.909h232.728V186.182H395.636v232.727zM186.182 837.82h93.09v-93.092h-93.09v93.091z m279.273 0h93.09v-93.092h-93.09v93.091z m279.272 0h93.091v-93.092h-93.09v93.091z" class="i ix" transform="translate(126.08625, 250) scale(0.014)"></path><text x="13" y="286" class="tf">type<tspan x="170.43" class="ty">string</tspan></text><text x="13" y="311" class="tf">update_at<tspan x="170.43" class="ty">number</tspan></text></svg><svg width="188.11" height="200" x="-425.71" y="-778.1" id="h2885027921" class="t"><rect height="40" width="188.11" class="th"></rect><text x="13" y="25" class="tht">ChannelInfo</text><rect height="160" width="188.11" class="t-bg"></rect><text x="13" y="61" class="tf pk">id<tspan x="175.11" class="ty">string</tspan></text><path d="M7,14A2,2 0 0,1 5,12A2,2 0 0,1 7,10A2,2 0 0,1 9,12A2,2 0 0,1 7,14M12.65,10C11.83,7.67 9.61,6 7, 6A6, 6 0 0, 0 1, 12A6, 6 0 0, 0 7, 18C9.61, 18 11.83, 16.33 12.65, 14H17V18H21V14H23V10H12.65Z" class="i pk" transform="translate(125.76625000000001, 48) scale(0.65)"></path><text x="13" y="86" class="tf">guest_count<tspan x="175.11" class="ty">number</tspan></text><text x="13" y="111" class="tf">header<tspan x="175.11" class="ty">string</tspan></text><text x="13" y="136" class="tf">member_count<tspan x="175.11" class="ty">number</tspan></text><text x="13" y="161" class="tf">pinned_post_count<tspan x="175.11" class="ty">number</tspan></text><text x="13" y="186" class="tf">purpose<tspan x="175.11" class="ty">string</tspan></text></svg><svg width="155.18" height="125" x="-367.5" y="-85.36" id="h2031253981" class="t"><rect height="40" width="155.18" class="th"></rect><text x="13" y="25" class="tht">ChannelMembership</text><rect height="85" width="155.18" class="t-bg"></rect><text x="13" y="61" class="tf pk">id<tspan x="142.18" class="ty">string</tspan></text><path d="M7,14A2,2 0 0,1 5,12A2,2 0 0,1 7,10A2,2 0 0,1 9,12A2,2 0 0,1 7,14M12.65,10C11.83,7.67 9.61,6 7, 6A6, 6 0 0, 0 1, 12A6, 6 0 0, 0 7, 18C9.61, 18 11.83, 16.33 12.65, 14H17V18H21V14H23V10H12.65Z" class="i pk" transform="translate(92.83625, 48) scale(0.65)"></path><text x="13" y="86" class="tf fk">channel_id<tspan x="142.18" class="ty">string</tspan></text><path d="M814.545 581.818v-23.273H535.273v-93.09h-46.546v93.09H209.455v139.637H256V605.09h232.727v93.09h46.546v-93.09H768v93.09h46.545V581.819zM674.91 465.455H349.091V139.636h325.818v325.819zM325.82 884.364H139.635V698.182h186.182v186.182z m279.272 0H418.909V698.182h186.182v186.182z m279.273 0H698.182V698.182h186.182v186.182zM395.636 418.909h232.728V186.182H395.636v232.727zM186.182 837.82h93.09v-93.092h-93.09v93.091z m279.273 0h93.09v-93.092h-93.09v93.091z m279.272 0h93.091v-93.092h-93.09v93.091z" class="i ix" transform="translate(97.83625, 75) scale(0.014)"></path><text x="13" y="111" class="tf fk">user_id<tspan x="142.18" class="ty">string</tspan></text><path d="M814.545 581.818v-23.273H535.273v-93.09h-46.546v93.09H209.455v139.637H256V605.09h232.727v93.09h46.546v-93.09H768v93.09h46.545V581.819zM674.91 465.455H349.091V139.636h325.818v325.819zM325.82 884.364H139.635V698.182h186.182v186.182z m279.272 0H418.909V698.182h186.182v186.182z m279.273 0H698.182V698.182h186.182v186.182zM395.636 418.909h232.728V186.182H395.636v232.727zM186.182 837.82h93.09v-93.092h-93.09v93.091z m279.273 0h93.09v-93.092h-93.09v93.091z m279.272 0h93.091v-93.092h-93.09v93.091z" class="i ix" transform="translate(97.83625, 100) scale(0.014)"></path></svg><svg width="109.24" height="100" x="468.46" y="-960.71" id="h1926163557" class="t"><rect height="40" width="109.24" class="th"></rect><text x="13" y="25" class="tht">CustomEmoji</text><rect height="60" width="109.24" class="t-bg"></rect><text x="13" y="61" class="tf pk">id<tspan x="96.24" class="ty">string</tspan></text><path d="M7,14A2,2 0 0,1 5,12A2,2 0 0,1 7,10A2,2 0 0,1 9,12A2,2 0 0,1 7,14M12.65,10C11.83,7.67 9.61,6 7, 6A6, 6 0 0, 0 1, 12A6, 6 0 0, 0 7, 18C9.61, 18 11.83, 16.33 12.65, 14H17V18H21V14H23V10H12.65Z" class="i pk" transform="translate(46.896249999999995, 48) scale(0.65)"></path><text x="13" y="86" class="tf">name<tspan x="96.24" class="ty">string</tspan></text></svg><svg width="148.39" height="175" x="-29.4" y="-522.86" id="h2916646478" class="t"><rect height="40" width="148.39" class="th"></rect><text x="13" y="25" class="tht">Draft</text><rect height="135" width="148.39" class="t-bg"></rect><text x="13" y="61" class="tf pk">id<tspan x="135.39" class="ty">string</tspan></text><path d="M7,14A2,2 0 0,1 5,12A2,2 0 0,1 7,10A2,2 0 0,1 9,12A2,2 0 0,1 7,14M12.65,10C11.83,7.67 9.61,6 7, 6A6, 6 0 0, 0 1, 12A6, 6 0 0, 0 7, 18C9.61, 18 11.83, 16.33 12.65, 14H17V18H21V14H23V10H12.65Z" class="i pk" transform="translate(86.04624999999999, 48) scale(0.65)"></path><text x="13" y="86" class="tf fk">channel_id<tspan x="135.39" class="ty">string</tspan></text><path d="M814.545 581.818v-23.273H535.273v-93.09h-46.546v93.09H209.455v139.637H256V605.09h232.727v93.09h46.546v-93.09H768v93.09h46.545V581.819zM674.91 465.455H349.091V139.636h325.818v325.819zM325.82 884.364H139.635V698.182h186.182v186.182z m279.272 0H418.909V698.182h186.182v186.182z m279.273 0H698.182V698.182h186.182v186.182zM395.636 418.909h232.728V186.182H395.636v232.727zM186.182 837.82h93.09v-93.092h-93.09v93.091z m279.273 0h93.09v-93.092h-93.09v93.091z m279.272 0h93.091v-93.092h-93.09v93.091z" class="i ix" transform="translate(91.04624999999999, 75) scale(0.014)"></path><text x="13" y="111" class="tf">files<tspan x="135.39" class="ty">string</tspan></text><text x="13" y="136" class="tf">message<tspan x="135.39" class="ty">string</tspan></text><text x="13" y="161" class="tf fk">root_id<tspan x="135.39" class="ty">string?</tspan></text><path d="M814.545 581.818v-23.273H535.273v-93.09h-46.546v93.09H209.455v139.637H256V605.09h232.727v93.09h46.546v-93.09H768v93.09h46.545V581.819zM674.91 465.455H349.091V139.636h325.818v325.819zM325.82 884.364H139.635V698.182h186.182v186.182z m279.272 0H418.909V698.182h186.182v186.182z m279.273 0H698.182V698.182h186.182v186.182zM395.636 418.909h232.728V186.182H395.636v232.727zM186.182 837.82h93.09v-93.092h-93.09v93.091z m279.273 0h93.09v-93.092h-93.09v93.091z m279.272 0h93.091v-93.092h-93.09v93.091z" class="i ix" transform="translate(84.37242187499999, 150) scale(0.014)"></path></svg><svg width="166.73" height="300" x="413.33" y="-443.57" id="h267283657" class="t"><rect height="40" width="166.73" class="th"></rect><text x="13" y="25" class="tht">File</text><rect height="260" width="166.73" class="t-bg"></rect><text x="13" y="61" class="tf pk">id<tspan x="153.73" class="ty">string</tspan></text><path d="M7,14A2,2 0 0,1 5,12A2,2 0 0,1 7,10A2,2 0 0,1 9,12A2,2 0 0,1 7,14M12.65,10C11.83,7.67 9.61,6 7, 6A6, 6 0 0, 0 1, 12A6, 6 0 0, 0 7, 18C9.61, 18 11.83, 16.33 12.65, 14H17V18H21V14H23V10H12.65Z" class="i pk" transform="translate(104.38624999999999, 48) scale(0.65)"></path><text x="13" y="86" class="tf">extension<tspan x="153.73" class="ty">string</tspan></text><text x="13" y="111" class="tf">height<tspan x="153.73" class="ty">number</tspan></text><text x="13" y="136" class="tf">image_thumbnail<tspan x="153.73" class="ty">string</tspan></text><text x="13" y="161" class="tf">local_path<tspan x="153.73" class="ty">string?</tspan></text><text x="13" y="186" class="tf">mime_type<tspan x="153.73" class="ty">string</tspan></text><text x="13" y="211" class="tf">name<tspan x="153.73" class="ty">string</tspan></text><text x="13" y="236" class="tf fk">post_id<tspan x="153.73" class="ty">string</tspan></text><path d="M814.545 581.818v-23.273H535.273v-93.09h-46.546v93.09H209.455v139.637H256V605.09h232.727v93.09h46.546v-93.09H768v93.09h46.545V581.819zM674.91 465.455H349.091V139.636h325.818v325.819zM325.82 884.364H139.635V698.182h186.182v186.182z m279.272 0H418.909V698.182h186.182v186.182z m279.273 0H698.182V698.182h186.182v186.182zM395.636 418.909h232.728V186.182H395.636v232.727zM186.182 837.82h93.09v-93.092h-93.09v93.091z m279.273 0h93.09v-93.092h-93.09v93.091z m279.272 0h93.091v-93.092h-93.09v93.091z" class="i ix" transform="translate(109.38624999999999, 225) scale(0.014)"></path><text x="13" y="261" class="tf">size<tspan x="153.73" class="ty">number</tspan></text><text x="13" y="286" class="tf">width<tspan x="153.73" class="ty">number</tspan></text></svg><svg width="180.77" height="275" x="-896.67" y="-719.17" id="h2665869450" class="t"><rect height="40" width="180.77" class="th"></rect><text x="13" y="25" class="tht">MyChannel</text><rect height="235" width="180.77" class="t-bg"></rect><text x="13" y="61" class="tf pk">id<tspan x="167.77" class="ty">string</tspan></text><path d="M7,14A2,2 0 0,1 5,12A2,2 0 0,1 7,10A2,2 0 0,1 9,12A2,2 0 0,1 7,14M12.65,10C11.83,7.67 9.61,6 7, 6A6, 6 0 0, 0 1, 12A6, 6 0 0, 0 7, 18C9.61, 18 11.83, 16.33 12.65, 14H17V18H21V14H23V10H12.65Z" class="i pk" transform="translate(118.42625000000001, 48) scale(0.65)"></path><text x="13" y="86" class="tf">is_unread<tspan x="167.77" class="ty">boolean</tspan></text><text x="13" y="111" class="tf">last_post_at<tspan x="167.77" class="ty">number</tspan></text><text x="13" y="136" class="tf">last_viewed_at<tspan x="167.77" class="ty">number</tspan></text><text x="13" y="161" class="tf">manually_unread<tspan x="167.77" class="ty">boolean</tspan></text><text x="13" y="186" class="tf">mentions_count<tspan x="167.77" class="ty">number</tspan></text><text x="13" y="211" class="tf">message_count<tspan x="167.77" class="ty">number</tspan></text><text x="13" y="236" class="tf">roles<tspan x="167.77" class="ty">string</tspan></text><text x="13" y="261" class="tf">viewed_at<tspan x="167.77" class="ty">number</tspan></text></svg><svg width="147.4" height="100" x="-234.17" y="-370.83" id="h2006619549" class="t"><rect height="40" width="147.4" class="th"></rect><text x="13" y="25" class="tht">MyChannelSettings</text><rect height="60" width="147.4" class="t-bg"></rect><text x="13" y="61" class="tf pk">id<tspan x="134.4" class="ty">string</tspan></text><path d="M7,14A2,2 0 0,1 5,12A2,2 0 0,1 7,10A2,2 0 0,1 9,12A2,2 0 0,1 7,14M12.65,10C11.83,7.67 9.61,6 7, 6A6, 6 0 0, 0 1, 12A6, 6 0 0, 0 7, 18C9.61, 18 11.83, 16.33 12.65, 14H17V18H21V14H23V10H12.65Z" class="i pk" transform="translate(85.05625, 48) scale(0.65)"></path><text x="13" y="86" class="tf">notify_props<tspan x="134.4" class="ty">string</tspan></text></svg><svg width="104.68" height="100" x="-1353.33" y="200.66" id="h1245308798" class="t"><rect height="40" width="104.68" class="th"></rect><text x="13" y="25" class="tht">MyTeam</text><rect height="60" width="104.68" class="t-bg"></rect><text x="13" y="61" class="tf pk">id<tspan x="91.68" class="ty">string</tspan></text><path d="M7,14A2,2 0 0,1 5,12A2,2 0 0,1 7,10A2,2 0 0,1 9,12A2,2 0 0,1 7,14M12.65,10C11.83,7.67 9.61,6 7, 6A6, 6 0 0, 0 1, 12A6, 6 0 0, 0 7, 18C9.61, 18 11.83, 16.33 12.65, 14H17V18H21V14H23V10H12.65Z" class="i pk" transform="translate(42.33625000000001, 48) scale(0.65)"></path><text x="13" y="86" class="tf">roles<tspan x="91.68" class="ty">string</tspan></text></svg><svg width="178.42" height="450" x="-72.26" y="-216.44" id="h2608394567" class="t"><rect height="40" width="178.42" class="th"></rect><text x="13" y="25" class="tht">Post</text><rect height="410" width="178.42" class="t-bg"></rect><text x="13" y="61" class="tf pk">id<tspan x="165.42" class="ty">string</tspan></text><path d="M7,14A2,2 0 0,1 5,12A2,2 0 0,1 7,10A2,2 0 0,1 9,12A2,2 0 0,1 7,14M12.65,10C11.83,7.67 9.61,6 7, 6A6, 6 0 0, 0 1, 12A6, 6 0 0, 0 7, 18C9.61, 18 11.83, 16.33 12.65, 14H17V18H21V14H23V10H12.65Z" class="i pk" transform="translate(116.07624999999999, 48) scale(0.65)"></path><text x="13" y="86" class="tf fk">channel_id<tspan x="165.42" class="ty">string</tspan></text><path d="M814.545 581.818v-23.273H535.273v-93.09h-46.546v93.09H209.455v139.637H256V605.09h232.727v93.09h46.546v-93.09H768v93.09h46.545V581.819zM674.91 465.455H349.091V139.636h325.818v325.819zM325.82 884.364H139.635V698.182h186.182v186.182z m279.272 0H418.909V698.182h186.182v186.182z m279.273 0H698.182V698.182h186.182v186.182zM395.636 418.909h232.728V186.182H395.636v232.727zM186.182 837.82h93.09v-93.092h-93.09v93.091z m279.273 0h93.09v-93.092h-93.09v93.091z m279.272 0h93.091v-93.092h-93.09v93.091z" class="i ix" transform="translate(121.07624999999999, 75) scale(0.014)"></path><text x="13" y="111" class="tf">create_at<tspan x="165.42" class="ty">number</tspan></text><text x="13" y="136" class="tf">delete_at<tspan x="165.42" class="ty">number</tspan></text><text x="13" y="161" class="tf">edit_at<tspan x="165.42" class="ty">number</tspan></text><text x="13" y="186" class="tf">is_pinned<tspan x="165.42" class="ty">boolean</tspan></text><text x="13" y="211" class="tf">message<tspan x="165.42" class="ty">string</tspan></text><text x="13" y="236" class="tf">metadata<tspan x="165.42" class="ty">string?</tspan></text><text x="13" y="261" class="tf">original_id<tspan x="165.42" class="ty">string</tspan></text><text x="13" y="286" class="tf">pending_post_id<tspan x="165.42" class="ty">string</tspan></text><path d="M814.545 581.818v-23.273H535.273v-93.09h-46.546v93.09H209.455v139.637H256V605.09h232.727v93.09h46.546v-93.09H768v93.09h46.545V581.819zM674.91 465.455H349.091V139.636h325.818v325.819zM325.82 884.364H139.635V698.182h186.182v186.182z m279.272 0H418.909V698.182h186.182v186.182z m279.273 0H698.182V698.182h186.182v186.182zM395.636 418.909h232.728V186.182H395.636v232.727zM186.182 837.82h93.09v-93.092h-93.09v93.091z m279.273 0h93.09v-93.092h-93.09v93.091z m279.272 0h93.091v-93.092h-93.09v93.091z" class="i ix" transform="translate(121.07624999999999, 275) scale(0.014)"></path><text x="13" y="311" class="tf">previous_post_id<tspan x="165.42" class="ty">string</tspan></text><text x="13" y="336" class="tf">props<tspan x="165.42" class="ty">string</tspan></text><text x="13" y="361" class="tf">root_id<tspan x="165.42" class="ty">string</tspan></text><text x="13" y="386" class="tf">type<tspan x="165.42" class="ty">string</tspan></text><text x="13" y="411" class="tf">update_at<tspan x="165.42" class="ty">number</tspan></text><text x="13" y="436" class="tf fk">user_id<tspan x="165.42" class="ty">string</tspan></text><path d="M814.545 581.818v-23.273H535.273v-93.09h-46.546v93.09H209.455v139.637H256V605.09h232.727v93.09h46.546v-93.09H768v93.09h46.545V581.819zM674.91 465.455H349.091V139.636h325.818v325.819zM325.82 884.364H139.635V698.182h186.182v186.182z m279.272 0H418.909V698.182h186.182v186.182z m279.273 0H698.182V698.182h186.182v186.182zM395.636 418.909h232.728V186.182H395.636v232.727zM186.182 837.82h93.09v-93.092h-93.09v93.091z m279.273 0h93.09v-93.092h-93.09v93.091z m279.272 0h93.091v-93.092h-93.09v93.091z" class="i ix" transform="translate(121.07624999999999, 425) scale(0.014)"></path></svg><svg width="148.39" height="150" x="-420" y="-565" id="h755982054" class="t"><rect height="40" width="148.39" class="th"></rect><text x="13" y="25" class="tht">PostsInChannel</text><rect height="110" width="148.39" class="t-bg"></rect><text x="13" y="61" class="tf pk">id<tspan x="135.39" class="ty">string</tspan></text><path d="M7,14A2,2 0 0,1 5,12A2,2 0 0,1 7,10A2,2 0 0,1 9,12A2,2 0 0,1 7,14M12.65,10C11.83,7.67 9.61,6 7, 6A6, 6 0 0, 0 1, 12A6, 6 0 0, 0 7, 18C9.61, 18 11.83, 16.33 12.65, 14H17V18H21V14H23V10H12.65Z" class="i pk" transform="translate(86.04624999999999, 48) scale(0.65)"></path><text x="13" y="86" class="tf fk">channel_id<tspan x="135.39" class="ty">string</tspan></text><path d="M814.545 581.818v-23.273H535.273v-93.09h-46.546v93.09H209.455v139.637H256V605.09h232.727v93.09h46.546v-93.09H768v93.09h46.545V581.819zM674.91 465.455H349.091V139.636h325.818v325.819zM325.82 884.364H139.635V698.182h186.182v186.182z m279.272 0H418.909V698.182h186.182v186.182z m279.273 0H698.182V698.182h186.182v186.182zM395.636 418.909h232.728V186.182H395.636v232.727zM186.182 837.82h93.09v-93.092h-93.09v93.091z m279.273 0h93.09v-93.092h-93.09v93.091z m279.272 0h93.091v-93.092h-93.09v93.091z" class="i ix" transform="translate(91.04624999999999, 75) scale(0.014)"></path><text x="13" y="111" class="tf">earliest<tspan x="135.39" class="ty">number</tspan></text><text x="13" y="136" class="tf">latest<tspan x="135.39" class="ty">number</tspan></text></svg><svg width="125.37" height="150" x="232.5" y="-432.5" id="h1916958091" class="t"><rect height="40" width="125.37" class="th"></rect><text x="13" y="25" class="tht">PostsInThread</text><rect height="110" width="125.37" class="t-bg"></rect><text x="13" y="61" class="tf pk">id<tspan x="112.37" class="ty">string</tspan></text><path d="M7,14A2,2 0 0,1 5,12A2,2 0 0,1 7,10A2,2 0 0,1 9,12A2,2 0 0,1 7,14M12.65,10C11.83,7.67 9.61,6 7, 6A6, 6 0 0, 0 1, 12A6, 6 0 0, 0 7, 18C9.61, 18 11.83, 16.33 12.65, 14H17V18H21V14H23V10H12.65Z" class="i pk" transform="translate(63.026250000000005, 48) scale(0.65)"></path><text x="13" y="86" class="tf">earliest<tspan x="112.37" class="ty">number</tspan></text><text x="13" y="111" class="tf">latest<tspan x="112.37" class="ty">number</tspan></text><text x="13" y="136" class="tf fk">root_id<tspan x="112.37" class="ty">string</tspan></text></svg><svg width="136.37" height="175" x="-108" y="493" id="h4088798296" class="t"><rect height="40" width="136.37" class="th"></rect><text x="13" y="25" class="tht">Preference</text><rect height="135" width="136.37" class="t-bg"></rect><text x="13" y="61" class="tf pk">id<tspan x="123.37" class="ty">string</tspan></text><path d="M7,14A2,2 0 0,1 5,12A2,2 0 0,1 7,10A2,2 0 0,1 9,12A2,2 0 0,1 7,14M12.65,10C11.83,7.67 9.61,6 7, 6A6, 6 0 0, 0 1, 12A6, 6 0 0, 0 7, 18C9.61, 18 11.83, 16.33 12.65, 14H17V18H21V14H23V10H12.65Z" class="i pk" transform="translate(74.02625, 48) scale(0.65)"></path><text x="13" y="86" class="tf">category<tspan x="123.37" class="ty">string</tspan></text><path d="M814.545 581.818v-23.273H535.273v-93.09h-46.546v93.09H209.455v139.637H256V605.09h232.727v93.09h46.546v-93.09H768v93.09h46.545V581.819zM674.91 465.455H349.091V139.636h325.818v325.819zM325.82 884.364H139.635V698.182h186.182v186.182z m279.272 0H418.909V698.182h186.182v186.182z m279.273 0H698.182V698.182h186.182v186.182zM395.636 418.909h232.728V186.182H395.636v232.727zM186.182 837.82h93.09v-93.092h-93.09v93.091z m279.273 0h93.09v-93.092h-93.09v93.091z m279.272 0h93.091v-93.092h-93.09v93.091z" class="i ix" transform="translate(79.02625, 75) scale(0.014)"></path><text x="13" y="111" class="tf">name<tspan x="123.37" class="ty">string</tspan></text><text x="13" y="136" class="tf fk">user_id<tspan x="123.37" class="ty">string</tspan></text><path d="M814.545 581.818v-23.273H535.273v-93.09h-46.546v93.09H209.455v139.637H256V605.09h232.727v93.09h46.546v-93.09H768v93.09h46.545V581.819zM674.91 465.455H349.091V139.636h325.818v325.819zM325.82 884.364H139.635V698.182h186.182v186.182z m279.272 0H418.909V698.182h186.182v186.182z m279.273 0H698.182V698.182h186.182v186.182zM395.636 418.909h232.728V186.182H395.636v232.727zM186.182 837.82h93.09v-93.092h-93.09v93.091z m279.273 0h93.09v-93.092h-93.09v93.091z m279.272 0h93.091v-93.092h-93.09v93.091z" class="i ix" transform="translate(79.02625, 125) scale(0.014)"></path><text x="13" y="161" class="tf">value<tspan x="123.37" class="ty">string</tspan></text></svg><svg width="140.71" height="175" x="133" y="153.5" id="h94567437" class="t"><rect height="40" width="140.71" class="th"></rect><text x="13" y="25" class="tht">Reaction</text><rect height="135" width="140.71" class="t-bg"></rect><text x="13" y="61" class="tf pk">id<tspan x="127.71000000000001" class="ty">string</tspan></text><path d="M7,14A2,2 0 0,1 5,12A2,2 0 0,1 7,10A2,2 0 0,1 9,12A2,2 0 0,1 7,14M12.65,10C11.83,7.67 9.61,6 7, 6A6, 6 0 0, 0 1, 12A6, 6 0 0, 0 7, 18C9.61, 18 11.83, 16.33 12.65, 14H17V18H21V14H23V10H12.65Z" class="i pk" transform="translate(78.36625000000001, 48) scale(0.65)"></path><text x="13" y="86" class="tf">create_at<tspan x="127.71000000000001" class="ty">number</tspan></text><text x="13" y="111" class="tf">emoji_name<tspan x="127.71000000000001" class="ty">string</tspan></text><text x="13" y="136" class="tf fk">post_id<tspan x="127.71000000000001" class="ty">string</tspan></text><path d="M814.545 581.818v-23.273H535.273v-93.09h-46.546v93.09H209.455v139.637H256V605.09h232.727v93.09h46.546v-93.09H768v93.09h46.545V581.819zM674.91 465.455H349.091V139.636h325.818v325.819zM325.82 884.364H139.635V698.182h186.182v186.182z m279.272 0H418.909V698.182h186.182v186.182z m279.273 0H698.182V698.182h186.182v186.182zM395.636 418.909h232.728V186.182H395.636v232.727zM186.182 837.82h93.09v-93.092h-93.09v93.091z m279.273 0h93.09v-93.092h-93.09v93.091z m279.272 0h93.091v-93.092h-93.09v93.091z" class="i ix" transform="translate(83.36625000000001, 125) scale(0.014)"></path><text x="13" y="161" class="tf fk">user_id<tspan x="127.71000000000001" class="ty">string</tspan></text><path d="M814.545 581.818v-23.273H535.273v-93.09h-46.546v93.09H209.455v139.637H256V605.09h232.727v93.09h46.546v-93.09H768v93.09h46.545V581.819zM674.91 465.455H349.091V139.636h325.818v325.819zM325.82 884.364H139.635V698.182h186.182v186.182z m279.272 0H418.909V698.182h186.182v186.182z m279.273 0H698.182V698.182h186.182v186.182zM395.636 418.909h232.728V186.182H395.636v232.727zM186.182 837.82h93.09v-93.092h-93.09v93.091z m279.273 0h93.09v-93.092h-93.09v93.091z m279.272 0h93.091v-93.092h-93.09v93.091z" class="i ix" transform="translate(83.36625000000001, 150) scale(0.014)"></path></svg><svg width="139.36" height="125" x="590.83" y="-963.33" id="h53935491" class="t"><rect height="40" width="139.36" class="th"></rect><text x="13" y="25" class="tht">Role</text><rect height="85" width="139.36" class="t-bg"></rect><text x="13" y="61" class="tf pk">id<tspan x="126.36000000000001" class="ty">string</tspan></text><path d="M7,14A2,2 0 0,1 5,12A2,2 0 0,1 7,10A2,2 0 0,1 9,12A2,2 0 0,1 7,14M12.65,10C11.83,7.67 9.61,6 7, 6A6, 6 0 0, 0 1, 12A6, 6 0 0, 0 7, 18C9.61, 18 11.83, 16.33 12.65, 14H17V18H21V14H23V10H12.65Z" class="i pk" transform="translate(77.01625000000001, 48) scale(0.65)"></path><text x="13" y="86" class="tf">name<tspan x="126.36000000000001" class="ty">string</tspan></text><text x="13" y="111" class="tf">permissions<tspan x="126.36000000000001" class="ty">string</tspan></text></svg><svg width="104.68" height="100" x="755" y="-963.33" id="h2573566177" class="t"><rect height="40" width="104.68" class="th"></rect><text x="13" y="25" class="tht">System</text><rect height="60" width="104.68" class="t-bg"></rect><text x="13" y="61" class="tf pk">id<tspan x="91.68" class="ty">string</tspan></text><path d="M7,14A2,2 0 0,1 5,12A2,2 0 0,1 7,10A2,2 0 0,1 9,12A2,2 0 0,1 7,14M12.65,10C11.83,7.67 9.61,6 7, 6A6, 6 0 0, 0 1, 12A6, 6 0 0, 0 7, 18C9.61, 18 11.83, 16.33 12.65, 14H17V18H21V14H23V10H12.65Z" class="i pk" transform="translate(42.33625000000001, 48) scale(0.65)"></path><text x="13" y="86" class="tf">value<tspan x="91.68" class="ty">string</tspan></text></svg><svg width="234.13" height="300" x="-1078.64" y="1.9" id="h3850950670" class="t"><rect height="40" width="234.13" class="th"></rect><text x="13" y="25" class="tht">Team</text><rect height="260" width="234.13" class="t-bg"></rect><text x="13" y="61" class="tf pk">id<tspan x="221.13" class="ty">string</tspan></text><path d="M7,14A2,2 0 0,1 5,12A2,2 0 0,1 7,10A2,2 0 0,1 9,12A2,2 0 0,1 7,14M12.65,10C11.83,7.67 9.61,6 7, 6A6, 6 0 0, 0 1, 12A6, 6 0 0, 0 7, 18C9.61, 18 11.83, 16.33 12.65, 14H17V18H21V14H23V10H12.65Z" class="i pk" transform="translate(171.78625, 48) scale(0.65)"></path><text x="13" y="86" class="tf">allowed_domains<tspan x="221.13" class="ty">string</tspan></text><text x="13" y="111" class="tf">description<tspan x="221.13" class="ty">string</tspan></text><text x="13" y="136" class="tf">display_name<tspan x="221.13" class="ty">string</tspan></text><text x="13" y="161" class="tf">is_allow_open_invite<tspan x="221.13" class="ty">boolean</tspan></text><text x="13" y="186" class="tf">is_group_constrained<tspan x="221.13" class="ty">boolean</tspan></text><text x="13" y="211" class="tf">last_team_icon_updated_at<tspan x="221.13" class="ty">number</tspan></text><text x="13" y="236" class="tf">name<tspan x="221.13" class="ty">string</tspan></text><text x="13" y="261" class="tf">type<tspan x="221.13" class="ty">string</tspan></text><text x="13" y="286" class="tf">update_at<tspan x="221.13" class="ty">number</tspan></text></svg><svg width="155.94" height="100" x="-1362.5" y="76.67" id="h2175883097" class="t"><rect height="40" width="155.94" class="th"></rect><text x="13" y="25" class="tht">TeamChannelHistory</text><rect height="60" width="155.94" class="t-bg"></rect><text x="13" y="61" class="tf pk">id<tspan x="142.94" class="ty">string</tspan></text><path d="M7,14A2,2 0 0,1 5,12A2,2 0 0,1 7,10A2,2 0 0,1 9,12A2,2 0 0,1 7,14M12.65,10C11.83,7.67 9.61,6 7, 6A6, 6 0 0, 0 1, 12A6, 6 0 0, 0 7, 18C9.61, 18 11.83, 16.33 12.65, 14H17V18H21V14H23V10H12.65Z" class="i pk" transform="translate(93.59625, 48) scale(0.65)"></path><text x="13" y="86" class="tf">channel_ids<tspan x="142.94" class="ty">string</tspan></text></svg><svg width="137.26" height="125" x="-686.67" y="351.33" id="h709930100" class="t"><rect height="40" width="137.26" class="th"></rect><text x="13" y="25" class="tht">TeamMembership</text><rect height="85" width="137.26" class="t-bg"></rect><text x="13" y="61" class="tf pk">id<tspan x="124.25999999999999" class="ty">string</tspan></text><path d="M7,14A2,2 0 0,1 5,12A2,2 0 0,1 7,10A2,2 0 0,1 9,12A2,2 0 0,1 7,14M12.65,10C11.83,7.67 9.61,6 7, 6A6, 6 0 0, 0 1, 12A6, 6 0 0, 0 7, 18C9.61, 18 11.83, 16.33 12.65, 14H17V18H21V14H23V10H12.65Z" class="i pk" transform="translate(74.91624999999999, 48) scale(0.65)"></path><text x="13" y="86" class="tf fk">team_id<tspan x="124.25999999999999" class="ty">string</tspan></text><path d="M814.545 581.818v-23.273H535.273v-93.09h-46.546v93.09H209.455v139.637H256V605.09h232.727v93.09h46.546v-93.09H768v93.09h46.545V581.819zM674.91 465.455H349.091V139.636h325.818v325.819zM325.82 884.364H139.635V698.182h186.182v186.182z m279.272 0H418.909V698.182h186.182v186.182z m279.273 0H698.182V698.182h186.182v186.182zM395.636 418.909h232.728V186.182H395.636v232.727zM186.182 837.82h93.09v-93.092h-93.09v93.091z m279.273 0h93.09v-93.092h-93.09v93.091z m279.272 0h93.091v-93.092h-93.09v93.091z" class="i ix" transform="translate(79.91624999999999, 75) scale(0.014)"></path><text x="13" y="111" class="tf fk">user_id<tspan x="124.25999999999999" class="ty">string</tspan></text><path d="M814.545 581.818v-23.273H535.273v-93.09h-46.546v93.09H209.455v139.637H256V605.09h232.727v93.09h46.546v-93.09H768v93.09h46.545V581.819zM674.91 465.455H349.091V139.636h325.818v325.819zM325.82 884.364H139.635V698.182h186.182v186.182z m279.272 0H418.909V698.182h186.182v186.182z m279.273 0H698.182V698.182h186.182v186.182zM395.636 418.909h232.728V186.182H395.636v232.727zM186.182 837.82h93.09v-93.092h-93.09v93.091z m279.273 0h93.09v-93.092h-93.09v93.091z m279.272 0h93.091v-93.092h-93.09v93.091z" class="i ix" transform="translate(79.91624999999999, 100) scale(0.014)"></path></svg><svg width="148.15" height="175" x="-1350.84" y="320.5" id="h1717311242" class="t"><rect height="40" width="148.15" class="th"></rect><text x="13" y="25" class="tht">TeamSearchHistory</text><rect height="135" width="148.15" class="t-bg"></rect><text x="13" y="61" class="tf pk">id<tspan x="135.15" class="ty">string</tspan></text><path d="M7,14A2,2 0 0,1 5,12A2,2 0 0,1 7,10A2,2 0 0,1 9,12A2,2 0 0,1 7,14M12.65,10C11.83,7.67 9.61,6 7, 6A6, 6 0 0, 0 1, 12A6, 6 0 0, 0 7, 18C9.61, 18 11.83, 16.33 12.65, 14H17V18H21V14H23V10H12.65Z" class="i pk" transform="translate(85.80625, 48) scale(0.65)"></path><text x="13" y="86" class="tf">created_at<tspan x="135.15" class="ty">number</tspan></text><text x="13" y="111" class="tf">display_term<tspan x="135.15" class="ty">string</tspan></text><text x="13" y="136" class="tf fk">team_id<tspan x="135.15" class="ty">string</tspan></text><text x="13" y="161" class="tf">term<tspan x="135.15" class="ty">string</tspan></text></svg><svg width="152.07" height="100" x="879.17" y="-962.5" id="h1124906438" class="t"><rect height="40" width="152.07" class="th"></rect><text x="13" y="25" class="tht">TermsOfService</text><rect height="60" width="152.07" class="t-bg"></rect><text x="13" y="61" class="tf pk">id<tspan x="139.07" class="ty">string</tspan></text><path d="M7,14A2,2 0 0,1 5,12A2,2 0 0,1 7,10A2,2 0 0,1 9,12A2,2 0 0,1 7,14M12.65,10C11.83,7.67 9.61,6 7, 6A6, 6 0 0, 0 1, 12A6, 6 0 0, 0 7, 18C9.61, 18 11.83, 16.33 12.65, 14H17V18H21V14H23V10H12.65Z" class="i pk" transform="translate(89.72625, 48) scale(0.65)"></path><text x="13" y="86" class="tf">accepted_at<tspan x="139.07" class="ty">number</tspan></text></svg><svg width="179.42" height="225" x="543.5" y="-120" id="h2036161164" class="t"><rect height="40" width="179.42" class="th"></rect><text x="13" y="25" class="tht">Thread</text><rect height="185" width="179.42" class="t-bg"></rect><text x="13" y="61" class="tf pk">id<tspan x="166.42" class="ty">string</tspan></text><path d="M7,14A2,2 0 0,1 5,12A2,2 0 0,1 7,10A2,2 0 0,1 9,12A2,2 0 0,1 7,14M12.65,10C11.83,7.67 9.61,6 7, 6A6, 6 0 0, 0 1, 12A6, 6 0 0, 0 7, 18C9.61, 18 11.83, 16.33 12.65, 14H17V18H21V14H23V10H12.65Z" class="i pk" transform="translate(117.07624999999999, 48) scale(0.65)"></path><text x="13" y="86" class="tf">last_reply_at<tspan x="166.42" class="ty">number</tspan></text><text x="13" y="111" class="tf">last_viewed_at<tspan x="166.42" class="ty">number</tspan></text><text x="13" y="136" class="tf">is_following<tspan x="166.42" class="ty">boolean</tspan></text><text x="13" y="161" class="tf">reply_count<tspan x="166.42" class="ty">number</tspan></text><text x="13" y="186" class="tf">unread_replies<tspan x="166.42" class="ty">number</tspan></text><text x="13" y="211" class="tf">unread_mentions<tspan x="166.42" class="ty">number</tspan></text></svg><svg width="226.16" height="150" x="-1054.83" y="422.17" id="h2618170050" class="t"><rect height="40" width="226.16" class="th"></rect><text x="13" y="25" class="tht">ThreadsInTeam</text><rect height="110" width="226.16" class="t-bg"></rect><text x="13" y="61" class="tf pk">id<tspan x="213.16" class="ty">string</tspan></text><path d="M7,14A2,2 0 0,1 5,12A2,2 0 0,1 7,10A2,2 0 0,1 9,12A2,2 0 0,1 7,14M12.65,10C11.83,7.67 9.61,6 7, 6A6, 6 0 0, 0 1, 12A6, 6 0 0, 0 7, 18C9.61, 18 11.83, 16.33 12.65, 14H17V18H21V14H23V10H12.65Z" class="i pk" transform="translate(163.81625, 48) scale(0.65)"></path><text x="13" y="86" class="tf fk">team_id<tspan x="213.16" class="ty">string</tspan></text><path d="M814.545 581.818v-23.273H535.273v-93.09h-46.546v93.09H209.455v139.637H256V605.09h232.727v93.09h46.546v-93.09H768v93.09h46.545V581.819zM674.91 465.455H349.091V139.636h325.818v325.819zM325.82 884.364H139.635V698.182h186.182v186.182z m279.272 0H418.909V698.182h186.182v186.182z m279.273 0H698.182V698.182h186.182v186.182zM395.636 418.909h232.728V186.182H395.636v232.727zM186.182 837.82h93.09v-93.092h-93.09v93.091z m279.273 0h93.09v-93.092h-93.09v93.091z m279.272 0h93.091v-93.092h-93.09v93.091z" class="i ix" transform="translate(168.81625, 75) scale(0.014)"></path><text x="13" y="111" class="tf">thread_id<tspan x="213.16" class="ty">string</tspan></text><path d="M814.545 581.818v-23.273H535.273v-93.09h-46.546v93.09H209.455v139.637H256V605.09h232.727v93.09h46.546v-93.09H768v93.09h46.545V581.819zM674.91 465.455H349.091V139.636h325.818v325.819zM325.82 884.364H139.635V698.182h186.182v186.182z m279.272 0H418.909V698.182h186.182v186.182z m279.273 0H698.182V698.182h186.182v186.182zM395.636 418.909h232.728V186.182H395.636v232.727zM186.182 837.82h93.09v-93.092h-93.09v93.091z m279.273 0h93.09v-93.092h-93.09v93.091z m279.272 0h93.091v-93.092h-93.09v93.091z" class="i ix" transform="translate(168.81625, 100) scale(0.014)"></path><text x="13" y="136" class="tf">loaded_in_global_threads<tspan x="213.16" class="ty">boolean</tspan></text></svg><svg width="140.38" height="125" x="463" y="395" id="h1628071091" class="t"><rect height="40" width="140.38" class="th"></rect><text x="13" y="25" class="tht">ThreadParticipant</text><rect height="85" width="140.38" class="t-bg"></rect><text x="13" y="61" class="tf pk">id<tspan x="127.38" class="ty">string</tspan></text><path d="M7,14A2,2 0 0,1 5,12A2,2 0 0,1 7,10A2,2 0 0,1 9,12A2,2 0 0,1 7,14M12.65,10C11.83,7.67 9.61,6 7, 6A6, 6 0 0, 0 1, 12A6, 6 0 0, 0 7, 18C9.61, 18 11.83, 16.33 12.65, 14H17V18H21V14H23V10H12.65Z" class="i pk" transform="translate(78.03625, 48) scale(0.65)"></path><text x="13" y="86" class="tf fk">thread_id<tspan x="127.38" class="ty">string</tspan></text><path d="M814.545 581.818v-23.273H535.273v-93.09h-46.546v93.09H209.455v139.637H256V605.09h232.727v93.09h46.546v-93.09H768v93.09h46.545V581.819zM674.91 465.455H349.091V139.636h325.818v325.819zM325.82 884.364H139.635V698.182h186.182v186.182z m279.272 0H418.909V698.182h186.182v186.182z m279.273 0H698.182V698.182h186.182v186.182zM395.636 418.909h232.728V186.182H395.636v232.727zM186.182 837.82h93.09v-93.092h-93.09v93.091z m279.273 0h93.09v-93.092h-93.09v93.091z m279.272 0h93.091v-93.092h-93.09v93.091z" class="i ix" transform="translate(83.03625, 75) scale(0.014)"></path><text x="13" y="111" class="tf fk">user_id<tspan x="127.38" class="ty">string</tspan></text><path d="M814.545 581.818v-23.273H535.273v-93.09h-46.546v93.09H209.455v139.637H256V605.09h232.727v93.09h46.546v-93.09H768v93.09h46.545V581.819zM674.91 465.455H349.091V139.636h325.818v325.819zM325.82 884.364H139.635V698.182h186.182v186.182z m279.272 0H418.909V698.182h186.182v186.182z m279.273 0H698.182V698.182h186.182v186.182zM395.636 418.909h232.728V186.182H395.636v232.727zM186.182 837.82h93.09v-93.092h-93.09v93.091z m279.273 0h93.09v-93.092h-93.09v93.091z m279.272 0h93.091v-93.092h-93.09v93.091z" class="i ix" transform="translate(83.03625, 100) scale(0.014)"></path></svg><svg width="191.43" height="550" x="-391.67" y="266.99" id="h1537667952" class="t"><rect height="40" width="191.43" class="th"></rect><text x="13" y="25" class="tht">User</text><rect height="510" width="191.43" class="t-bg"></rect><text x="13" y="61" class="tf pk">id<tspan x="178.43" class="ty">string</tspan></text><path d="M7,14A2,2 0 0,1 5,12A2,2 0 0,1 7,10A2,2 0 0,1 9,12A2,2 0 0,1 7,14M12.65,10C11.83,7.67 9.61,6 7, 6A6, 6 0 0, 0 1, 12A6, 6 0 0, 0 7, 18C9.61, 18 11.83, 16.33 12.65, 14H17V18H21V14H23V10H12.65Z" class="i pk" transform="translate(129.08625, 48) scale(0.65)"></path><text x="13" y="86" class="tf">auth_service<tspan x="178.43" class="ty">string</tspan></text><text x="13" y="111" class="tf">delete_at<tspan x="178.43" class="ty">number</tspan></text><text x="13" y="136" class="tf">email<tspan x="178.43" class="ty">string</tspan></text><text x="13" y="161" class="tf">first_name<tspan x="178.43" class="ty">string</tspan></text><text x="13" y="186" class="tf">is_bot<tspan x="178.43" class="ty">boolean</tspan></text><text x="13" y="211" class="tf">is_guest<tspan x="178.43" class="ty">boolean</tspan></text><text x="13" y="236" class="tf">last_name<tspan x="178.43" class="ty">string</tspan></text><text x="13" y="261" class="tf">last_picture_update<tspan x="178.43" class="ty">number</tspan></text><text x="13" y="286" class="tf">locale<tspan x="178.43" class="ty">string</tspan></text><text x="13" y="311" class="tf">nickname<tspan x="178.43" class="ty">string</tspan></text><text x="13" y="336" class="tf">notify_props<tspan x="178.43" class="ty">string</tspan></text><text x="13" y="361" class="tf">position<tspan x="178.43" class="ty">string</tspan></text><text x="13" y="386" class="tf">props<tspan x="178.43" class="ty">string</tspan></text><text x="13" y="411" class="tf">remote_id<tspan x="178.43" class="ty">string?</tspan></text><text x="13" y="436" class="tf">roles<tspan x="178.43" class="ty">string</tspan></text><text x="13" y="461" class="tf">status<tspan x="178.43" class="ty">string</tspan></text><text x="13" y="486" class="tf">timezone<tspan x="178.43" class="ty">string</tspan></text><text x="13" y="511" class="tf">update_at<tspan x="178.43" class="ty">number</tspan></text><text x="13" y="536" class="tf">username<tspan x="178.43" class="ty">string</tspan></text></svg></g></g></svg>