<svg width="69" height="79" viewBox="0 0 69 79" fill="none" xmlns="http://www.w3.org/2000/svg">
<circle cx="31" cy="22.5" r="8.5" fill="#3F4350" fill-opacity="0.24"/>
<circle cx="31" cy="22" r="21" stroke="#3F4350" stroke-opacity="0.08" stroke-width="2"/>
<circle cx="31" cy="22" r="14" stroke="#3F4350" stroke-opacity="0.16" stroke-width="2"/>
<g clip-path="url(#clip0_510_17728)">
<path fill-rule="evenodd" clip-rule="evenodd" d="M23.8817 59.3289C23.782 59.1198 23.6852 58.9036 23.5896 58.68C23.1622 57.7293 22.7481 56.7384 22.3549 55.7976L22.3548 55.7974C21.6009 53.9934 20.9241 52.3738 20.3781 51.5763C20.3725 51.5692 20.3668 51.5623 20.3613 51.5556C20.3558 51.5489 20.3504 51.5424 20.345 51.536C19.9446 51.0595 19.5411 50.5806 19.1348 50.1041C18.4711 49.3623 17.7767 48.6482 17.0534 47.9636L16.9464 47.6157C16.8366 47.4976 16.7087 47.3639 16.5684 47.2171C15.3219 45.9132 13.0949 43.5837 13.8637 42.1814C14.6752 40.7014 16.8849 40.089 17.9873 40.3238C19.0896 40.5586 20.784 41.8548 20.784 41.8548L24.2798 44.9169L26.2242 47.7033L26.2246 47.704C26.8231 47.0294 27.1529 46.6265 27.1529 46.6265C27.1529 46.6265 27.6633 34.8887 27.6327 32.189C27.602 29.4893 27.5918 21.0278 27.7654 20.3337C27.9389 19.6396 28.5054 18.0627 31.0775 18.4557C33.6496 18.8486 34.0885 20.8543 34.0885 20.8543L34.3487 24.937L34.7877 38.2773C34.7877 38.2773 35.1857 34.2609 36.2881 33.4699C37.0689 32.9085 39.0592 33.0157 40.1718 33.4699C41.514 34.0364 42.0396 38.2671 42.0396 38.2671C42.0396 38.2671 42.4224 36.093 42.9123 35.2612C43.6166 34.0721 46.0254 34.9193 46.8777 35.5572C47.5105 36.0369 48.1127 41.0025 48.1127 41.0025C48.1127 41.0025 48.0514 39.4715 48.7914 38.8183C49.3936 38.3079 51.2206 38.6499 51.731 39.1908C52.8997 40.4361 53.4049 43.9064 53.4049 43.9064L53.6652 46.0651V50.5153C53.8702 53.0229 53.7288 56.1421 52.9787 57.9734C52.7392 58.5581 52.5196 59.0372 52.3161 59.481C51.8822 60.4271 51.5219 61.213 51.1996 62.5207C51.1738 62.9302 50.9608 66.154 50.593 67.0759C50.2 68.0608 48.8936 69.4949 46.8012 70.2808C43.8644 71.417 40.7175 71.9078 37.5742 71.72C35.699 71.5932 31.0356 70.6611 30.5211 68.3298C30.3147 67.3942 29.7628 66.5331 29.1906 65.7816C27.7084 64.3506 24.9074 61.4856 23.9003 59.3577L23.8817 59.3289Z" fill="#FFBC1F"/>
<path d="M36.8853 33.2097C36.8853 33.2097 35.5242 33.5579 36.2876 43.6064C36.5224 46.0713 34.9358 48.0759 35.0379 46.2387C35.2114 43.1766 34.6449 39.7369 34.8592 37.5629C35.3185 33.0311 36.8853 33.2097 36.8853 33.2097Z" fill="#CC8F00"/>
<path d="M44.1322 34.6795C44.1322 34.6795 42.1269 34.4246 43.303 44.535C43.548 46.9999 43.7495 47.8259 43.0299 46.7746C41.9224 45.1517 41.9071 43.1716 41.9531 38.8235C41.999 34.2917 44.1322 34.6795 44.1322 34.6795Z" fill="#CC8F00"/>
<path d="M49.701 38.5781C49.701 38.5781 48.3408 39.7446 49.2662 45.6491C49.8079 48.9711 50.2411 48.6577 50.088 48.8006C49.9349 48.9435 48.4294 47.9636 48.0772 42.5438C47.8185 40.4356 48.3702 39.2702 48.7002 38.9082C49.0302 38.5462 49.701 38.5781 49.701 38.5781Z" fill="#CC8F00"/>
<path d="M30.1274 18.4205C30.1274 18.4205 28.5466 18.6497 28.6538 23.0029C28.8171 29.7037 29.1641 30.3569 29.0263 34.3784C28.8885 38.3999 29.6643 43.9319 27.9495 47.1879C26.8574 49.265 26.1123 47.6983 26.1123 47.6983C26.1123 47.6983 28.419 45.7845 27.4443 23.0131C27.1609 18.0862 30.1274 18.4205 30.1274 18.4205Z" fill="#CC8F00"/>
<path d="M28.9839 23.4788C28.6222 22.5746 28.1701 19.3192 28.6222 18.9575C29.0743 18.5958 32.6435 18.7706 32.9626 19.2537C33.2344 19.6651 33.1435 22.4841 32.9626 23.4788C32.7818 24.4735 29.3938 24.5036 28.9839 23.4788Z" fill="#FFD470"/>
<path d="M16.6094 46.5194C16.6094 46.5194 19.2376 48.9895 21.3096 50.8624C22.6201 52.047 24.8223 56.9738 24.8116 56.9107C25.0225 57.6341 26.6741 61.3371 28.6637 62.4778C32.9637 64.9432 31.5271 70.3587 38.1811 70.2808C43.4121 70.2196 49.7069 69.1128 51.2022 62.4778C51.2022 62.4778 50.9859 66.091 50.593 67.0759C50.2 68.0609 48.8936 69.4949 46.8012 70.2808C43.8644 71.417 40.7175 71.9078 37.5742 71.72C35.699 71.5932 31.0356 70.6612 30.5211 68.3298C30.3147 67.3943 29.7628 66.5332 29.1905 65.7816C27.7017 64.3442 24.8822 61.4598 23.8868 59.329C22.5089 56.3792 21.2484 52.8119 20.3502 51.5361C19.333 50.2723 18.2316 49.0788 17.0534 47.9637L16.6094 46.5194Z" fill="#CC8F00"/>
<path d="M29.5988 21.7714C29.4541 20.6863 29.5988 18.7593 29.5988 18.7593C29.418 18.7593 28.7218 18.8235 28.5982 18.9717C28.4051 19.2034 28.4056 19.7928 28.4533 20.5999C28.5191 21.7135 28.7941 23.05 28.984 23.4788C29.2481 24.0751 30.4552 24.2327 30.9375 24.2327C30.4854 24.0518 29.7797 23.1278 29.5988 21.7714Z" fill="#F5AB00"/>
<path d="M17.0483 47.9688C17.1749 46.78 16.9528 45.5799 16.4091 44.5152C15.8654 43.4504 15.0235 42.5668 13.9863 41.9723C13.578 41.7222 12.9275 42.7334 13.2796 43.1774C13.6318 43.6214 16.4091 47.1827 17.0483 47.9688Z" fill="#FFD470"/>
<path d="M13.2812 42.4391L17.0774 46.9564C17.0774 46.9564 17.1131 47.2169 17.0986 47.5182C17.0841 47.8194 17.0485 47.9688 17.0485 47.9688C17.0485 47.9688 14.8593 45.3353 13.8282 43.886C13.2566 43.1256 13.0212 43.0897 13.2812 42.4391Z" fill="#F5AB00"/>
</g>
<defs>
<clipPath id="clip0_510_17728">
<rect width="40.9141" height="53.3511" fill="white" transform="translate(13.1597 18.4149)"/>
</clipPath>
</defs>
</svg>
